<svg width="41" height="41" viewBox="0 0 41 41" fill="none" xmlns="http://www.w3.org/2000/svg">
<g filter="url(#filter0_d)">
<mask id="mask0" mask-type="alpha" maskUnits="userSpaceOnUse" x="4" y="0" width="33" height="33">
<circle cx="20.5" cy="16.5" r="16.5" fill="#FFA012"/>
</mask>
<g mask="url(#mask0)">
<circle cx="20.5" cy="16.5" r="16.5" fill="#FFA012"/>
<g filter="url(#filter1_d)">
<path d="M7.11086 20.9227C7.11086 20.9227 6.90096 18.976 7.11088 18.3672C7.32079 17.7585 7.69671 17.2074 7.7504 17.0116C7.8041 16.8158 7.28908 15.78 8.15803 14.4186C9.02696 13.0572 9.59079 13.3451 9.83 13.0572C10.0692 12.7694 10.057 11.7973 11.1358 10.87C12.2147 9.94274 13.2032 10.03 13.2032 10.03C13.2032 10.03 13.6841 8.81257 14.8508 8.35013C16.0175 7.88768 17.194 8.17317 17.194 8.17317C17.194 8.17317 18.2436 7.24591 19.713 7.2176C21.1823 7.18929 21.6021 7.59511 21.9317 7.62342C22.2612 7.65174 23.0398 7.27659 24.4189 7.76735C25.798 8.26047 25.8175 9.00841 26.1275 9.12874C26.4375 9.24907 27.2674 9.01313 28.5268 9.99701C29.7863 10.9809 29.5788 11.4339 29.757 11.6203C29.9327 11.8067 31.1165 11.8138 31.7658 13.4158C32.2442 14.5955 31.9879 15.4614 32.0367 15.5889C32.0855 15.7162 32.7641 16.3981 33.057 17.0965C33.6674 19.2965 33.4271 20.9227 33.4271 20.9227C33.4271 20.9227 32.7896 21.5791 31.2641 22.5489C29.6507 23.5752 11.5606 21.7682 10.3597 21.3978C8.28494 20.7631 7.11086 20.9227 7.11086 20.9227Z" fill="white"/>
</g>
<path d="M9.01016 17.4175C9.01016 17.4175 8.87591 15.9594 9.28109 15.1571C9.8498 14.027 10.9604 13.9113 10.9604 13.9113C10.9604 13.9113 11.0849 12.6231 12.0392 11.9129C13.2084 11.0447 13.6575 11.2759 14.048 10.9267C14.4386 10.5798 14.6778 9.97111 15.637 9.56529C16.5963 9.15947 17.3749 9.42136 17.7044 9.27508C18.0339 9.12879 18.5611 8.53422 19.6107 8.46579C20.9605 8.37849 21.0484 8.88341 21.8221 8.96363C22.3713 9.02026 22.7813 8.70646 23.9505 9.05329C25.1197 9.40013 25.1587 10.0844 25.5297 10.3179C25.9007 10.5515 26.8161 10.3368 27.807 11.0706C28.7053 11.736 28.6955 12.3518 28.9469 12.6066C29.1959 12.8614 29.9354 12.9534 30.4749 14.3172C30.924 15.4521 30.5921 15.7871 30.7141 16.1434C30.8361 16.4997 31.5049 16.8724 31.9125 17.9389C32.4227 19.272 32.2713 19.968 32.2713 19.968C32.2713 19.968 29.8134 23.132 18.9029 23.0093C11.0483 22.922 8.23153 20.2865 8.23153 20.2865C8.23153 20.2865 8.11192 18.8662 8.41215 18.3164C8.71237 17.7667 9.01016 17.4175 9.01016 17.4175Z" fill="white"/>
<path d="M19.4321 22.2306C19.6737 22.7567 20.6257 22.844 21.4262 21.9781C22.1438 21.1995 21.724 20.0009 20.9551 20.1024C20.2546 20.1944 20.4841 20.8975 20.1497 21.1665C19.8153 21.4354 19.2222 21.7729 19.4321 22.2306Z" fill="#F8F8F8"/>
<path d="M23.1741 19.0193C23.3816 19.4488 24.6264 19.3568 25.0975 18.564C25.5685 17.7688 25.5002 16.608 24.8168 16.6198C23.9259 16.6363 24.2578 17.5164 23.943 17.7854C23.6281 18.0543 22.825 18.2927 23.1741 19.0193Z" fill="#F8F8F8"/>
<path d="M27.9817 14.6403C27.4692 14.8007 27.7376 15.452 27.5278 15.8908C27.3178 16.3297 26.7589 16.8204 27.1958 17.1932C27.6327 17.566 28.6285 16.9573 28.7701 16.0277C28.9068 15.098 28.5236 14.4728 27.9817 14.6403Z" fill="#F8F8F8"/>
<path d="M25.82 20.52C25.4929 21.0273 24.8754 20.7725 24.7534 21.2986C24.6313 21.8224 25.8908 22.0088 26.5889 21.3836C27.2894 20.7583 27.0966 19.6942 26.6597 19.6092C26.2228 19.5219 26.0812 20.1142 25.82 20.52Z" fill="#F8F8F8"/>
<path d="M23.8476 14.7299C24.1356 15.0414 25.2902 14.7111 25.6734 13.5998C26.0566 12.4885 25.2999 11.7712 24.7898 12.0237C24.2797 12.2761 24.6433 12.8117 24.5213 13.1586C24.3993 13.5054 23.2838 14.1212 23.8476 14.7299Z" fill="#F8F8F8"/>
<g style="mix-blend-mode:multiply">
<g style="mix-blend-mode:multiply">
<path fill-rule="evenodd" clip-rule="evenodd" d="M16.6841 23.1614C17.4585 23.2311 18.2963 23.275 19.201 23.285C21.3695 23.3094 23.2041 23.204 24.7518 23.0194C28.1446 23.1962 30.9689 23.2021 31.5625 22.8245C33.088 21.8548 33.7254 21.1983 33.7254 21.1983C33.7254 21.1983 33.9658 19.5721 33.3554 17.3721C33.1529 16.8893 32.766 16.4143 32.5303 16.125V16.125L32.5303 16.1249L32.5302 16.1249L32.5302 16.1248C32.4251 15.9958 32.3502 15.9038 32.3351 15.8645C32.3233 15.8335 32.3294 15.759 32.3386 15.6469C32.3675 15.2977 32.4263 14.5845 32.0642 13.6914C31.565 12.4598 30.7499 12.1709 30.3199 12.0184C30.1906 11.9725 30.096 11.939 30.0554 11.8959C30.0086 11.847 29.9884 11.7797 29.9612 11.6892C29.885 11.435 29.754 10.9982 28.8252 10.2726C27.8791 9.53356 27.1754 9.48281 26.7524 9.4523C26.6123 9.4422 26.503 9.43431 26.4258 9.40437C26.3271 9.36604 26.2578 9.264 26.1646 9.1268V9.12679C25.9654 8.83333 25.657 8.37899 24.7172 8.04298C23.6881 7.67673 22.9933 7.79275 22.5701 7.86343C22.4262 7.88745 22.3136 7.90624 22.2301 7.89906C22.1346 7.89086 22.0316 7.85099 21.8977 7.79919C21.5694 7.6721 21.0552 7.47312 20.0113 7.49324C19.2159 7.50856 18.5436 7.78728 18.0941 8.03975C18.0971 8.04082 18.1002 8.0419 18.1032 8.04298C19.043 8.37899 19.3514 8.83333 19.5506 9.12679V9.1268C19.6438 9.264 19.7131 9.36604 19.8118 9.40437C19.8889 9.43431 19.9983 9.4422 20.1383 9.4523C20.5614 9.48281 21.2651 9.53356 22.2112 10.2726C23.1399 10.9982 23.2709 11.435 23.3472 11.6892V11.6892C23.3744 11.7797 23.3946 11.847 23.4413 11.8959C23.482 11.939 23.5765 11.9725 23.7058 12.0184C24.1359 12.1709 24.951 12.4598 25.4502 13.6914C25.8123 14.5845 25.7534 15.2977 25.7246 15.6469C25.7154 15.759 25.7092 15.8335 25.7211 15.8645C25.7362 15.9038 25.8111 15.9958 25.9162 16.1248L25.9162 16.1249L25.9163 16.1249L25.9163 16.125V16.125C26.1519 16.4143 26.5388 16.8893 26.7413 17.3721C27.3518 19.5721 27.1114 21.1983 27.1114 21.1983C27.1114 21.1983 26.474 21.8548 24.9485 22.8245C24.3548 23.2021 21.5306 23.1962 18.1378 23.0194C17.6788 23.0741 17.1947 23.1219 16.6841 23.1614Z" fill="#F8F8F8"/>
</g>
</g>
<g style="mix-blend-mode:multiply">
<g style="mix-blend-mode:multiply">
<path fill-rule="evenodd" clip-rule="evenodd" d="M18.5266 16.1842C18.618 16.0812 18.7786 16.0692 18.8853 16.1576C19.0326 16.2797 19.6053 16.5902 20.5004 16.5902C21.403 16.5902 21.8742 16.3575 22.1156 16.1576C22.2222 16.0692 22.3828 16.0812 22.4742 16.1842C22.5657 16.2874 22.5533 16.4426 22.4467 16.531C22.0944 16.8228 21.4972 17.082 20.5004 17.082C19.4961 17.082 18.8025 16.7368 18.5541 16.531C18.4475 16.4426 18.4351 16.2874 18.5266 16.1842Z" fill="black"/>
</g>
</g>
<g style="mix-blend-mode:multiply">
<g style="mix-blend-mode:multiply">
<path d="M17.1929 14.8689C17.1929 14.5973 17.4206 14.3771 17.7016 14.3771C17.9826 14.3771 18.2104 14.5973 18.2104 14.8689C18.2104 15.1405 17.9826 15.3607 17.7016 15.3607C17.4206 15.3607 17.1929 15.1405 17.1929 14.8689Z" fill="black"/>
</g>
</g>
<g style="mix-blend-mode:multiply">
<g style="mix-blend-mode:multiply">
<path d="M22.7896 14.8689C22.7896 14.5973 23.0173 14.3771 23.2983 14.3771C23.5793 14.3771 23.8071 14.5973 23.8071 14.8689C23.8071 15.1405 23.5793 15.3607 23.2983 15.3607C23.0173 15.3607 22.7896 15.1405 22.7896 14.8689Z" fill="black"/>
</g>
</g>
<g filter="url(#filter2_d)">
<path fill-rule="evenodd" clip-rule="evenodd" d="M7.91538 20.2787C6.85755 20.2787 6 21.1213 6 22.1439C6 27.4414 9.09458 32.0898 13.6316 34.423V36.0164C13.6316 36.5596 14.0872 37 14.6492 37H25.8422C26.4042 37 26.8597 36.5596 26.8597 36.0164V34.4229C31.3967 32.0897 34.4912 27.4414 34.4912 22.1439C34.4912 21.1213 33.6337 20.2787 32.5759 20.2787H7.91538Z" fill="#F4F0EA"/>
</g>
<path d="M12.5247 26.5653C12.6438 26.59 12.6438 26.7543 12.5247 26.779C11.3503 27.0228 10.433 27.9096 10.1808 29.0448C10.1552 29.1599 9.98525 29.1599 9.95967 29.0448C9.70749 27.9096 8.7901 27.0228 7.6157 26.779C7.49659 26.7543 7.49659 26.59 7.6157 26.5653C8.7901 26.3215 9.70749 25.4347 9.95967 24.2995C9.98525 24.1844 10.1552 24.1844 10.1808 24.2995C10.433 25.4347 11.3503 26.3215 12.5247 26.5653Z" fill="#FFA012"/>
<path d="M17.6121 26.5653C17.7312 26.59 17.7312 26.7543 17.6121 26.779C16.4377 27.0228 15.5204 27.9096 15.2682 29.0448C15.2426 29.1599 15.0727 29.1599 15.0471 29.0448C14.7949 27.9096 13.8775 27.0228 12.7031 26.779C12.584 26.7543 12.584 26.59 12.7031 26.5653C13.8775 26.3215 14.7949 25.4347 15.0471 24.2995C15.0727 24.1844 15.2426 24.1844 15.2682 24.2995C15.5204 25.4347 16.4377 26.3215 17.6121 26.5653Z" fill="#FFA012"/>
<path d="M22.7005 26.5653C22.8196 26.59 22.8196 26.7543 22.7005 26.779C21.5261 27.0228 20.6087 27.9096 20.3565 29.0448C20.331 29.1599 20.161 29.1599 20.1354 29.0448C19.8832 27.9096 18.9659 27.0228 17.7915 26.779C17.6724 26.7543 17.6724 26.59 17.7915 26.5653C18.9659 26.3215 19.8832 25.4347 20.1354 24.2995C20.161 24.1844 20.331 24.1844 20.3565 24.2995C20.6087 25.4347 21.5261 26.3215 22.7005 26.5653Z" fill="#FFA012"/>
<path d="M27.7879 26.5653C27.907 26.59 27.907 26.7543 27.7879 26.779C26.6135 27.0228 25.6962 27.9096 25.444 29.0448C25.4184 29.1599 25.2484 29.1599 25.2228 29.0448C24.9706 27.9096 24.0533 27.0228 22.8789 26.779C22.7598 26.7543 22.7598 26.59 22.8789 26.5653C24.0533 26.3215 24.9706 25.4347 25.2228 24.2995C25.2484 24.1844 25.4184 24.1844 25.444 24.2995C25.6962 25.4347 26.6135 26.3215 27.7879 26.5653Z" fill="#FFA012"/>
<path d="M32.8758 26.5653C32.9949 26.59 32.9949 26.7543 32.8758 26.779C31.7014 27.0228 30.784 27.9096 30.5318 29.0448C30.5063 29.1599 30.3363 29.1599 30.3107 29.0448C30.0585 27.9096 29.1412 27.0228 27.9668 26.779C27.8477 26.7543 27.8477 26.59 27.9668 26.5653C29.1412 26.3215 30.0585 25.4347 30.3107 24.2995C30.3363 24.1844 30.5063 24.1844 30.5318 24.2995C30.784 25.4347 31.7014 26.3215 32.8758 26.5653Z" fill="#FFA012"/>
<g style="mix-blend-mode:multiply">
<g style="mix-blend-mode:multiply">
<path fill-rule="evenodd" clip-rule="evenodd" d="M16.6841 37H25.842C26.404 37 26.8595 36.5596 26.8595 36.0164V34.4229C31.3965 32.0897 34.4911 27.4414 34.4911 22.1439C34.4911 21.1213 33.6336 20.2787 32.5757 20.2787H23.4178C24.4757 20.2787 25.3332 21.1213 25.3332 22.1439C25.3332 27.4414 22.2386 32.0897 17.7016 34.4229V36.0164C17.7016 36.5596 17.2461 37 16.6841 37Z" fill="#F4F0EA"/>
</g>
</g>
</g>
</g>
<defs>
<filter id="filter0_d" x="0" y="0" width="41" height="41" filterUnits="userSpaceOnUse" color-interpolation-filters="sRGB">
<feFlood flood-opacity="0" result="BackgroundImageFix"/>
<feColorMatrix in="SourceAlpha" type="matrix" values="0 0 0 0 0 0 0 0 0 0 0 0 0 0 0 0 0 0 127 0" result="hardAlpha"/>
<feOffset dy="4"/>
<feGaussianBlur stdDeviation="2"/>
<feComposite in2="hardAlpha" operator="out"/>
<feColorMatrix type="matrix" values="0 0 0 0 0 0 0 0 0 0 0 0 0 0 0 0 0 0 0.25 0"/>
<feBlend mode="normal" in2="BackgroundImageFix" result="effect1_dropShadow"/>
<feBlend mode="normal" in="SourceGraphic" in2="effect1_dropShadow" result="shape"/>
</filter>
<filter id="filter1_d" x="3.01758" y="7.21619" width="34.4561" height="23.6442" filterUnits="userSpaceOnUse" color-interpolation-filters="sRGB">
<feFlood flood-opacity="0" result="BackgroundImageFix"/>
<feColorMatrix in="SourceAlpha" type="matrix" values="0 0 0 0 0 0 0 0 0 0 0 0 0 0 0 0 0 0 127 0" result="hardAlpha"/>
<feOffset dy="4"/>
<feGaussianBlur stdDeviation="2"/>
<feComposite in2="hardAlpha" operator="out"/>
<feColorMatrix type="matrix" values="0 0 0 0 0.883333 0 0 0 0 0.358044 0 0 0 0 0.0625694 0 0 0 0.6 0"/>
<feBlend mode="normal" in2="BackgroundImageFix" result="effect1_dropShadow"/>
<feBlend mode="normal" in="SourceGraphic" in2="effect1_dropShadow" result="shape"/>
</filter>
<filter id="filter2_d" x="2" y="20.2787" width="36.4912" height="24.7213" filterUnits="userSpaceOnUse" color-interpolation-filters="sRGB">
<feFlood flood-opacity="0" result="BackgroundImageFix"/>
<feColorMatrix in="SourceAlpha" type="matrix" values="0 0 0 0 0 0 0 0 0 0 0 0 0 0 0 0 0 0 127 0" result="hardAlpha"/>
<feOffset dy="4"/>
<feGaussianBlur stdDeviation="2"/>
<feComposite in2="hardAlpha" operator="out"/>
<feColorMatrix type="matrix" values="0 0 0 0 0.883333 0 0 0 0 0.358044 0 0 0 0 0.0625694 0 0 0 0.6 0"/>
<feBlend mode="normal" in2="BackgroundImageFix" result="effect1_dropShadow"/>
<feBlend mode="normal" in="SourceGraphic" in2="effect1_dropShadow" result="shape"/>
</filter>
</defs>
</svg>
