<svg width="195" height="112" viewBox="0 0 195 112" fill="none" xmlns="http://www.w3.org/2000/svg">
<g clip-path="url(#clip0)">
<path d="M0 10C0 4.47715 4.47715 0 10 0H186C191.523 0 196 4.47715 196 10V112H0V10Z" fill="#57B4F8"/>
<circle cx="97" cy="74" r="74" fill="#78C6FF"/>
<path d="M58.3529 83.2586C58.3529 83.2586 57.7193 77.1147 58.3529 75.1934C58.9865 73.2723 60.1212 71.5331 60.2833 70.915C60.4454 70.297 58.8908 67.0279 61.5137 62.7312C64.1366 58.4347 65.8385 59.3432 66.5605 58.4347C67.2825 57.5262 67.2457 54.4582 70.5021 51.5317C73.7586 48.6052 76.7425 48.8807 76.7425 48.8807C76.7425 48.8807 78.1939 45.0383 81.7156 43.5788C85.2373 42.1193 88.7885 43.0203 88.7885 43.0203C88.7885 43.0203 91.9567 40.0938 96.392 40.0045C100.827 39.9151 102.094 41.1959 103.089 41.2853C104.084 41.3746 106.434 40.1906 110.597 41.7395C114.759 43.2958 114.818 45.6564 115.754 46.0362C116.69 46.4159 119.195 45.6713 122.996 48.7765C126.798 51.8817 126.172 53.3114 126.71 53.8997C127.24 54.488 130.813 54.5103 132.773 59.5665C134.217 63.2897 133.444 66.0226 133.591 66.4248C133.738 66.8268 135.787 68.9789 136.671 71.1831C138.513 78.1262 137.788 83.2586 137.788 83.2586C137.788 83.2586 135.864 85.3305 131.259 88.391C126.389 91.6302 71.7841 85.9273 68.1593 84.7582C61.8968 82.7549 58.3529 83.2586 58.3529 83.2586Z" fill="white"/>
<path d="M64.0853 72.1958C64.0853 72.1958 63.6801 67.594 64.9031 65.0621C66.6198 61.4952 69.972 61.1303 69.972 61.1303C69.972 61.1303 70.3478 57.0645 73.2285 54.8231C76.7576 52.0828 78.1132 52.8126 79.292 51.7105C80.4708 50.6158 81.1929 48.6946 84.0883 47.4138C86.9838 46.133 89.334 46.9596 90.3287 46.4979C91.3234 46.0362 92.9147 44.1597 96.0829 43.9438C100.157 43.6682 100.422 45.2618 102.758 45.515C104.416 45.6937 105.653 44.7033 109.182 45.7979C112.711 46.8926 112.829 49.0521 113.949 49.7893C115.069 50.5265 117.832 49.8489 120.823 52.1647C123.535 54.2646 123.505 56.2082 124.264 57.0124C125.015 57.8166 127.248 58.107 128.876 62.4111C130.232 65.9929 129.23 67.0504 129.598 68.1748C129.966 69.2992 131.985 70.4757 133.216 73.8416C134.755 78.0489 134.299 80.2455 134.299 80.2455C134.299 80.2455 126.879 90.2314 93.9462 89.8441C70.2373 89.5686 61.7351 81.2509 61.7351 81.2509C61.7351 81.2509 61.374 76.7681 62.2803 75.033C63.1865 73.298 64.0853 72.1958 64.0853 72.1958Z" fill="white"/>
<path d="M95.5446 87.3864C96.2739 89.0469 99.1474 89.3224 101.564 86.5897C103.73 84.1323 102.463 80.3494 100.142 80.6696C98.0274 80.96 98.72 83.1791 97.7106 84.028C96.7013 84.8769 94.911 85.9418 95.5446 87.3864Z" fill="#F8F8F8"/>
<path d="M106.838 77.2519C107.465 78.6072 111.222 78.3168 112.644 75.8147C114.066 73.3052 113.86 69.6416 111.797 69.6789C109.108 69.7309 110.11 72.5085 109.159 73.3573C108.209 74.2062 105.785 74.9584 106.838 77.2519Z" fill="#F8F8F8"/>
<path d="M121.352 63.4313C119.805 63.9376 120.616 65.993 119.982 67.378C119.348 68.763 117.661 70.3119 118.98 71.4884C120.299 72.665 123.305 70.7438 123.732 67.8099C124.145 64.8759 122.988 62.9026 121.352 63.4313Z" fill="#F8F8F8"/>
<path d="M114.825 81.9882C113.837 83.5891 111.973 82.7849 111.605 84.4456C111.237 86.0987 115.038 86.6869 117.145 84.7137C119.26 82.7402 118.678 79.3818 117.359 79.1137C116.04 78.8382 115.613 80.7074 114.825 81.9882Z" fill="#F8F8F8"/>
<path d="M108.872 63.7139C109.741 64.6969 113.226 63.6544 114.383 60.147C115.54 56.6397 113.256 54.376 111.716 55.1728C110.176 55.9695 111.274 57.66 110.905 58.7546C110.537 59.8491 107.17 61.7928 108.872 63.7139Z" fill="#F8F8F8"/>
<g style="mix-blend-mode:multiply">
<path fill-rule="evenodd" clip-rule="evenodd" d="M87.25 90.3242C89.5875 90.5443 92.1165 90.6826 94.8473 90.7144C101.393 90.7914 106.93 90.4586 111.602 89.8759C121.843 90.4339 130.368 90.4527 132.16 89.2608C136.765 86.2004 138.689 84.1284 138.689 84.1284C138.689 84.1284 139.414 78.996 137.572 72.0529C136.961 70.529 135.793 69.0299 135.082 68.1169V68.1167L135.081 68.1166L135.081 68.1164L135.081 68.1163C134.764 67.7091 134.538 67.4186 134.492 67.2946C134.456 67.1969 134.475 66.9616 134.503 66.6079C134.59 65.5058 134.768 63.2549 133.674 60.4363C132.168 56.5492 129.707 55.6373 128.409 55.156C128.019 55.0113 127.734 54.9056 127.611 54.7695C127.47 54.6151 127.409 54.4026 127.327 54.117C127.097 53.3149 126.701 51.9362 123.898 49.6463C121.042 47.3137 118.918 47.1536 117.641 47.0573C117.218 47.0254 116.888 47.0005 116.655 46.906C116.357 46.785 116.148 46.463 115.867 46.03V46.0299C115.265 45.1038 114.334 43.6698 111.498 42.6094C108.391 41.4535 106.294 41.8196 105.017 42.0427C104.582 42.1185 104.243 42.1778 103.99 42.1551C103.702 42.1293 103.391 42.0034 102.987 41.8399C101.996 41.4388 100.444 40.8109 97.2933 40.8743C94.8923 40.9227 92.8629 41.8023 91.5061 42.5992C91.5153 42.6026 91.5245 42.606 91.5336 42.6094C94.3702 43.6698 95.3011 45.1038 95.9025 46.0299V46.03C96.1837 46.463 96.3929 46.785 96.691 46.906C96.9238 47.0005 97.2538 47.0254 97.6766 47.0573C98.9535 47.1536 101.078 47.3137 103.933 49.6463C106.737 51.9362 107.132 53.3149 107.362 54.117V54.117C107.444 54.4026 107.505 54.6151 107.647 54.7695C107.769 54.9056 108.055 55.0113 108.445 55.156C109.743 55.6373 112.204 56.5492 113.71 60.4363C114.803 63.2549 114.626 65.5058 114.539 66.6079C114.511 66.9616 114.492 67.1969 114.528 67.2946C114.573 67.4186 114.8 67.7091 115.117 68.1163L115.117 68.1164L115.117 68.1166L115.117 68.1167V68.1169C115.828 69.0299 116.996 70.529 117.608 72.0529C119.45 78.996 118.725 84.1284 118.725 84.1284C118.725 84.1284 116.801 86.2004 112.196 89.2608C110.404 90.4527 101.879 90.4339 91.638 89.8759C90.2526 90.0487 88.7912 90.1994 87.25 90.3242Z" fill="#F8F8F8"/>
</g>
<g style="mix-blend-mode:multiply">
<path d="M88.7861 64.1525C88.7861 63.2952 89.4737 62.6003 90.3218 62.6003C91.17 62.6003 91.8576 63.2952 91.8576 64.1525C91.8576 65.0098 91.17 65.7047 90.3218 65.7047C89.4737 65.7047 88.7861 65.0098 88.7861 64.1525Z" fill="black"/>
</g>
<g style="mix-blend-mode:multiply">
<path d="M105.679 64.1525C105.679 63.2952 106.366 62.6003 107.214 62.6003C108.063 62.6003 108.75 63.2952 108.75 64.1525C108.75 65.0098 108.063 65.7047 107.214 65.7047C106.366 65.7047 105.679 65.0098 105.679 64.1525Z" fill="black"/>
</g>
<path d="M55 87.1132C55 83.8859 57.5885 81.2264 60.7815 81.2264H135.218C138.412 81.2264 141 83.8859 141 87.1132C141 111.116 121.748 130.896 98 130.896C74.2517 130.896 55 111.116 55 87.1132Z" fill="#F4F0EA"/>
<path d="M74.6949 101.067C75.0544 101.145 75.0544 101.664 74.6949 101.742C71.15 102.511 68.3809 105.31 67.6197 108.893C67.5425 109.256 67.0295 109.256 66.9523 108.893C66.1911 105.31 63.422 102.511 59.8771 101.742C59.5175 101.664 59.5175 101.145 59.8771 101.067C63.422 100.298 66.1911 97.4989 66.9523 93.9161C67.0295 93.5527 67.5425 93.5527 67.6197 93.9161C68.3809 97.4989 71.15 100.298 74.6949 101.067Z" fill="#FFA012"/>
<path d="M90.0523 101.067C90.4118 101.145 90.4118 101.664 90.0523 101.742C86.5074 102.511 83.7383 105.31 82.9771 108.893C82.8998 109.256 82.3869 109.256 82.3097 108.893C81.5484 105.31 78.7794 102.511 75.2345 101.742C74.875 101.664 74.875 101.145 75.2345 101.067C78.7794 100.298 81.5484 97.4989 82.3097 93.9161C82.3869 93.5527 82.8998 93.5527 82.9771 93.9161C83.7383 97.4989 86.5074 100.298 90.0523 101.067Z" fill="#FFA012"/>
<path d="M105.409 101.067C105.768 101.145 105.768 101.664 105.409 101.742C101.864 102.511 99.0948 105.31 98.3335 108.893C98.2563 109.256 97.7434 109.256 97.6661 108.893C96.9049 105.31 94.1358 102.511 90.5909 101.742C90.2314 101.664 90.2314 101.145 90.5909 101.067C94.1358 100.298 96.9049 97.4989 97.6661 93.9161C97.7434 93.5527 98.2563 93.5527 98.3335 93.9161C99.0948 97.4989 101.864 100.298 105.409 101.067Z" fill="#FFA012"/>
<path d="M120.766 101.067C121.126 101.145 121.126 101.664 120.766 101.742C117.221 102.511 114.452 105.31 113.691 108.893C113.614 109.256 113.101 109.256 113.024 108.893C112.262 105.31 109.493 102.511 105.948 101.742C105.589 101.664 105.589 101.145 105.948 101.067C109.493 100.298 112.262 97.4989 113.024 93.9161C113.101 93.5527 113.614 93.5527 113.691 93.9161C114.452 97.4989 117.221 100.298 120.766 101.067Z" fill="#FFA012"/>
<path d="M136.124 101.067C136.483 101.145 136.483 101.664 136.124 101.742C132.579 102.511 129.81 105.31 129.048 108.893C128.971 109.256 128.458 109.256 128.381 108.893C127.62 105.31 124.851 102.511 121.306 101.742C120.946 101.664 120.946 101.145 121.306 101.067C124.851 100.298 127.62 97.4989 128.381 93.9161C128.458 93.5527 128.971 93.5527 129.048 93.9161C129.81 97.4989 132.579 100.298 136.124 101.067Z" fill="#FFA012"/>
<g style="mix-blend-mode:multiply">
<path fill-rule="evenodd" clip-rule="evenodd" d="M87.25 133.774H114.893C116.589 133.774 117.964 132.384 117.964 130.669V125.64C131.659 118.276 141 103.606 141 86.8867C141 83.6595 138.412 81 135.218 81H107.576C110.769 81 113.357 83.6595 113.357 86.8867C113.357 103.606 104.016 118.276 90.3214 125.64V130.669C90.3214 132.384 88.9464 133.774 87.25 133.774Z" fill="#F4F0EA"/>
</g>
<ellipse cx="99" cy="68.5" rx="4" ry="4.5" fill="#FF7C6A"/>
<path fill-rule="evenodd" clip-rule="evenodd" d="M97 66.5986V64.5016C97.5883 64.1826 98.2713 64 98.9998 64C99.7284 64 100.412 64.1827 101 64.5018V66.5987C100.412 66.8539 99.7286 67 99.0001 67C98.2715 67 97.5884 66.8539 97 66.5986Z" fill="#F4F0EA"/>
<path d="M97.9978 23.36C97.2138 23.36 96.5498 23.08 96.0058 22.52C95.4618 21.944 95.1898 21.248 95.1898 20.432C95.1898 19.632 95.4618 18.952 96.0058 18.392C96.5498 17.816 97.2138 17.528 97.9978 17.528C98.7658 17.528 99.4218 17.816 99.9658 18.392C100.526 18.952 100.806 19.632 100.806 20.432C100.806 21.248 100.526 21.944 99.9658 22.52C99.4218 23.08 98.7658 23.36 97.9978 23.36ZM97.9978 35C97.3418 35 96.8538 34.816 96.5338 34.448C96.2298 34.064 96.0218 33.496 95.9098 32.744C95.8138 31.976 95.7658 30.888 95.7658 29.48C95.7658 28.296 95.8218 27.36 95.9338 26.672C96.0618 25.984 96.2858 25.472 96.6058 25.136C96.9258 24.8 97.3898 24.632 97.9978 24.632C98.6538 24.632 99.1338 24.824 99.4378 25.208C99.7578 25.576 99.9658 26.144 100.062 26.912C100.174 27.664 100.23 28.744 100.23 30.152C100.23 31.336 100.166 32.272 100.038 32.96C99.9258 33.648 99.7098 34.16 99.3898 34.496C99.0698 34.832 98.6058 35 97.9978 35Z" fill="white"/>
</g>
<defs>
<clipPath id="clip0">
<rect width="195" height="112" fill="white"/>
</clipPath>
</defs>
</svg>
