<svg width="28" height="11" viewBox="0 0 28 11" fill="none" xmlns="http://www.w3.org/2000/svg">
<path d="M3.0892 2.40465L0.0792022 2.39811L0.0839799 0.200111L8.86196 0.219191L8.85718 2.41719L5.86119 2.41067L5.84466 10.0127L3.07267 10.0066L3.0892 2.40465ZM9.89468 0.221436L12.6667 0.227461L12.6454 10.0274L9.87337 10.0214L9.89468 0.221436ZM19.1188 0.241486C20.0055 0.243414 20.7751 0.39442 21.4278 0.694506C22.0805 0.985259 22.5836 1.40635 22.9371 1.95779C23.2906 2.49989 23.4665 3.13961 23.4649 3.87694C23.4633 4.61427 23.2846 5.25322 22.9287 5.79378C22.5729 6.33434 22.068 6.75325 21.414 7.05049C20.76 7.3384 19.9897 7.4814 19.1031 7.47947L17.3951 7.47576L17.3895 10.0378L14.6175 10.0317L14.6388 0.231748L19.1188 0.241486ZM18.9398 5.29511C19.5091 5.29635 19.9387 5.17595 20.2286 4.93391C20.5185 4.68254 20.6639 4.32819 20.6649 3.87086C20.6659 3.41352 20.522 3.05854 20.2332 2.80591C19.9444 2.55329 19.5154 2.42635 18.946 2.42512L17.4061 2.42177L17.3998 5.29176L18.9398 5.29511ZM24.513 0.253211L27.677 0.260089L27.1315 6.48892L25.0175 6.48432L24.513 0.253211ZM26.0735 10.1826C25.6068 10.1816 25.2244 10.0408 24.9264 9.76013C24.6283 9.47015 24.4798 9.11983 24.4807 8.70916C24.4816 8.28916 24.6317 7.94415 24.9309 7.67414C25.2302 7.40412 25.6131 7.26962 26.0798 7.27063C26.5465 7.27165 26.9242 7.4078 27.2129 7.6791C27.511 7.95041 27.6596 8.29607 27.6587 8.71607C27.6578 9.12674 27.5077 9.47641 27.2084 9.76509C26.9091 10.0444 26.5308 10.1836 26.0735 10.1826Z" fill="#FFA012"/>
</svg>
