<svg width="28" height="28" viewBox="0 0 28 28" fill="none" xmlns="http://www.w3.org/2000/svg">
<path d="M6 5.4C6 4.6268 6.6268 4 7.4 4H20.6C21.3732 4 22 4.6268 22 5.4V23.4266C22 24.5361 20.771 25.2047 19.8394 24.602L14.7606 21.3157C14.2977 21.0162 13.7023 21.0162 13.2394 21.3157L8.16055 24.602C7.22904 25.2047 6 24.5361 6 23.4266V5.4Z" fill="#FFA012"/>
<path fill-rule="evenodd" clip-rule="evenodd" d="M5.25 5.4C5.25 4.21259 6.21259 3.25 7.4 3.25H20.6C21.7874 3.25 22.75 4.21259 22.75 5.4V23.4266C22.75 25.1305 20.8625 26.1573 19.432 25.2317L14.3531 21.9453C14.1382 21.8063 13.8618 21.8063 13.6469 21.9453L8.56799 25.2317C7.13746 26.1573 5.25 25.1305 5.25 23.4266V5.4ZM7.4 4.75C7.04102 4.75 6.75 5.04102 6.75 5.4V23.4266C6.75 23.9417 7.32063 24.2522 7.75311 23.9723L12.832 20.686C13.5428 20.2261 14.4572 20.2261 15.168 20.686L20.2469 23.9723C20.6794 24.2522 21.25 23.9417 21.25 23.4266V5.4C21.25 5.04101 20.959 4.75 20.6 4.75H7.4Z" fill="white"/>
</svg>
