<svg width="196" height="112" viewBox="0 0 196 112" fill="none" xmlns="http://www.w3.org/2000/svg">
<g clip-path="url(#clip0)">
<rect width="196" height="120" rx="10" fill="#FFA012"/>
<path d="M96.1669 2.88617C97.3677 1.40077 99.6323 1.40077 100.833 2.88617L118.247 24.4291C118.994 25.352 120.213 25.7484 121.359 25.4402L148.111 18.2476C149.955 17.7516 151.787 19.0828 151.886 20.9903L153.312 48.6548C153.373 49.8399 154.127 50.8777 155.235 51.302L181.105 61.207C182.888 61.8899 183.588 64.0437 182.547 65.6447L167.439 88.8639C166.792 89.8586 166.792 91.1414 167.439 92.1361L182.547 115.355C183.588 116.956 182.888 119.11 181.105 119.793L155.235 129.698C154.127 130.122 153.373 131.16 153.312 132.345L151.886 160.01C151.787 161.917 149.955 163.248 148.111 162.752L121.359 155.56C120.213 155.252 118.994 155.648 118.247 156.571L100.833 178.114C99.6323 179.599 97.3677 179.599 96.1669 178.114L78.7525 156.571C78.0065 155.648 76.7865 155.252 75.6405 155.56L48.8894 162.752C47.0449 163.248 45.2127 161.917 45.1144 160.01L43.6884 132.345C43.6274 131.16 42.8734 130.122 41.7651 129.698L15.8952 119.793C14.1115 119.11 13.4117 116.956 14.4533 115.355L29.5605 92.1361C30.2077 91.1414 30.2077 89.8586 29.5605 88.8639L14.4533 65.6447C13.4117 64.0437 14.1115 61.8899 15.8953 61.207L41.7651 51.302C42.8734 50.8777 43.6274 49.8399 43.6884 48.6548L45.1144 20.9903C45.2127 19.0828 47.0449 17.7516 48.8894 18.2476L75.6405 25.4402C76.7865 25.7484 78.0065 25.352 78.7525 24.4291L96.1669 2.88617Z" fill="#FE7A00"/>
<path d="M58.3529 83.2586C58.3529 83.2586 57.7193 77.1147 58.3529 75.1934C58.9865 73.2723 60.1212 71.5331 60.2833 70.915C60.4454 70.297 58.8908 67.0279 61.5137 62.7312C64.1366 58.4347 65.8385 59.3432 66.5605 58.4347C67.2825 57.5262 67.2457 54.4582 70.5021 51.5317C73.7586 48.6052 76.7425 48.8807 76.7425 48.8807C76.7425 48.8807 78.1939 45.0383 81.7156 43.5788C85.2373 42.1193 88.7885 43.0203 88.7885 43.0203C88.7885 43.0203 91.9567 40.0938 96.392 40.0045C100.827 39.9151 102.094 41.1959 103.089 41.2853C104.084 41.3746 106.434 40.1906 110.597 41.7395C114.759 43.2958 114.818 45.6564 115.754 46.0362C116.69 46.4159 119.195 45.6713 122.996 48.7765C126.798 51.8817 126.172 53.3114 126.71 53.8997C127.24 54.488 130.813 54.5103 132.773 59.5665C134.217 63.2897 133.444 66.0226 133.591 66.4248C133.738 66.8268 135.787 68.9789 136.671 71.1831C138.513 78.1262 137.788 83.2586 137.788 83.2586C137.788 83.2586 135.864 85.3305 131.259 88.391C126.389 91.6302 71.7841 85.9273 68.1593 84.7582C61.8968 82.7549 58.3529 83.2586 58.3529 83.2586Z" fill="white"/>
<path d="M64.0853 72.1958C64.0853 72.1958 63.6801 67.594 64.9031 65.0621C66.6198 61.4952 69.972 61.1303 69.972 61.1303C69.972 61.1303 70.3478 57.0645 73.2285 54.8231C76.7576 52.0828 78.1132 52.8126 79.292 51.7105C80.4708 50.6158 81.1929 48.6946 84.0883 47.4138C86.9838 46.133 89.334 46.9596 90.3287 46.4979C91.3234 46.0362 92.9147 44.1597 96.0829 43.9438C100.157 43.6682 100.422 45.2618 102.758 45.515C104.416 45.6937 105.653 44.7033 109.182 45.7979C112.711 46.8926 112.829 49.0521 113.949 49.7893C115.069 50.5265 117.832 49.8489 120.823 52.1647C123.535 54.2646 123.505 56.2082 124.264 57.0124C125.015 57.8166 127.248 58.107 128.876 62.4111C130.232 65.9929 129.23 67.0504 129.598 68.1748C129.966 69.2992 131.985 70.4757 133.216 73.8416C134.755 78.0489 134.299 80.2455 134.299 80.2455C134.299 80.2455 126.879 90.2314 93.9462 89.8441C70.2373 89.5686 61.7351 81.2509 61.7351 81.2509C61.7351 81.2509 61.374 76.7681 62.2803 75.033C63.1865 73.298 64.0853 72.1958 64.0853 72.1958Z" fill="white"/>
<path d="M95.5446 87.3863C96.2739 89.0468 99.1474 89.3223 101.564 86.5896C103.73 84.1322 102.463 80.3493 100.142 80.6695C98.0274 80.9599 98.72 83.179 97.7106 84.0279C96.7013 84.8768 94.911 85.9417 95.5446 87.3863Z" fill="#F8F8F8"/>
<path d="M106.838 77.2518C107.465 78.6071 111.222 78.3167 112.644 75.8146C114.066 73.3051 113.86 69.6415 111.797 69.6787C109.108 69.7307 110.11 72.5083 109.159 73.3572C108.209 74.2061 105.785 74.9583 106.838 77.2518Z" fill="#F8F8F8"/>
<path d="M121.352 63.4314C119.805 63.9377 120.616 65.9931 119.982 67.3781C119.348 68.7631 117.661 70.312 118.98 71.4885C120.299 72.6651 123.305 70.744 123.732 67.8101C124.145 64.876 122.988 62.9027 121.352 63.4314Z" fill="#F8F8F8"/>
<path d="M114.825 81.9882C113.837 83.5891 111.973 82.7849 111.605 84.4456C111.237 86.0987 115.038 86.6869 117.145 84.7137C119.26 82.7402 118.678 79.3818 117.359 79.1137C116.04 78.8382 115.613 80.7074 114.825 81.9882Z" fill="#F8F8F8"/>
<path d="M108.872 63.7139C109.741 64.6969 113.226 63.6544 114.383 60.147C115.54 56.6397 113.256 54.376 111.716 55.1728C110.176 55.9695 111.274 57.66 110.905 58.7546C110.537 59.8491 107.17 61.7928 108.872 63.7139Z" fill="#F8F8F8"/>
<g style="mix-blend-mode:multiply">
<path fill-rule="evenodd" clip-rule="evenodd" d="M87.25 90.3242C89.5875 90.5443 92.1165 90.6826 94.8473 90.7144C101.393 90.7914 106.93 90.4586 111.602 89.8759C121.843 90.4339 130.368 90.4527 132.16 89.2608C136.765 86.2004 138.689 84.1284 138.689 84.1284C138.689 84.1284 139.414 78.996 137.572 72.0529C136.961 70.529 135.793 69.0299 135.082 68.1169V68.1167L135.081 68.1166L135.081 68.1164L135.081 68.1163C134.764 67.7091 134.538 67.4186 134.492 67.2946C134.456 67.1969 134.475 66.9616 134.503 66.6079C134.59 65.5058 134.768 63.2549 133.674 60.4363C132.168 56.5492 129.707 55.6373 128.409 55.156C128.019 55.0113 127.734 54.9056 127.611 54.7695C127.47 54.6151 127.409 54.4026 127.327 54.117C127.097 53.3149 126.701 51.9362 123.898 49.6463C121.042 47.3137 118.918 47.1536 117.641 47.0573C117.218 47.0254 116.888 47.0005 116.655 46.906C116.357 46.785 116.148 46.463 115.867 46.03V46.0299C115.265 45.1038 114.334 43.6698 111.498 42.6094C108.391 41.4535 106.294 41.8196 105.017 42.0427C104.582 42.1185 104.243 42.1778 103.99 42.1551C103.702 42.1293 103.391 42.0034 102.987 41.8399C101.996 41.4388 100.444 40.8109 97.2933 40.8743C94.8923 40.9227 92.8629 41.8023 91.5061 42.5992C91.5153 42.6026 91.5245 42.606 91.5336 42.6094C94.3702 43.6698 95.3011 45.1038 95.9025 46.0299V46.03C96.1837 46.463 96.3929 46.785 96.691 46.906C96.9238 47.0005 97.2538 47.0254 97.6766 47.0573C98.9535 47.1536 101.078 47.3137 103.933 49.6463C106.737 51.9362 107.132 53.3149 107.362 54.117V54.117C107.444 54.4026 107.505 54.6151 107.647 54.7695C107.769 54.9056 108.055 55.0113 108.445 55.156C109.743 55.6373 112.204 56.5492 113.71 60.4363C114.803 63.2549 114.626 65.5058 114.539 66.6079C114.511 66.9616 114.492 67.1969 114.528 67.2946C114.573 67.4186 114.8 67.7091 115.117 68.1163L115.117 68.1164L115.117 68.1166L115.117 68.1167V68.1169C115.828 69.0299 116.996 70.529 117.608 72.0529C119.45 78.996 118.725 84.1284 118.725 84.1284C118.725 84.1284 116.801 86.2004 112.196 89.2608C110.404 90.4527 101.879 90.4339 91.638 89.8759C90.2526 90.0487 88.7912 90.1994 87.25 90.3242Z" fill="#F8F8F8"/>
</g>
<g style="mix-blend-mode:multiply">
<path fill-rule="evenodd" clip-rule="evenodd" d="M92.8099 68.3039C93.0858 67.9786 93.5705 67.9409 93.8925 68.2198C94.3373 68.605 96.066 69.5851 98.7678 69.5851C101.492 69.5851 102.915 68.8507 103.643 68.2198C103.965 67.9409 104.45 67.9786 104.726 68.3039C105.002 68.6294 104.965 69.1193 104.643 69.3982C103.579 70.3194 101.777 71.1372 98.7678 71.1372C95.7363 71.1372 93.6428 70.0478 92.8931 69.3982C92.5712 69.1193 92.5339 68.6294 92.8099 68.3039Z" fill="black"/>
</g>
<g style="mix-blend-mode:multiply">
<path d="M88.7861 64.1525C88.7861 63.2952 89.4737 62.6003 90.3218 62.6003C91.17 62.6003 91.8576 63.2952 91.8576 64.1525C91.8576 65.0098 91.17 65.7047 90.3218 65.7047C89.4737 65.7047 88.7861 65.0098 88.7861 64.1525Z" fill="black"/>
</g>
<g style="mix-blend-mode:multiply">
<path d="M105.679 64.1525C105.679 63.2952 106.366 62.6003 107.214 62.6003C108.063 62.6003 108.75 63.2952 108.75 64.1525C108.75 65.0098 108.063 65.7047 107.214 65.7047C106.366 65.7047 105.679 65.0098 105.679 64.1525Z" fill="black"/>
</g>
<path d="M55 87.1133C55 83.886 57.5885 81.2266 60.7815 81.2266H135.218C138.412 81.2266 141 83.886 141 87.1133C141 111.116 121.748 130.896 98 130.896C74.2517 130.896 55 111.116 55 87.1133Z" fill="#F4F0EA"/>
<path d="M74.6949 101.067C75.0544 101.145 75.0544 101.664 74.6949 101.742C71.15 102.511 68.3809 105.31 67.6197 108.893C67.5425 109.256 67.0295 109.256 66.9523 108.893C66.1911 105.31 63.422 102.511 59.8771 101.742C59.5175 101.664 59.5175 101.145 59.8771 101.067C63.422 100.298 66.1911 97.4989 66.9523 93.9161C67.0295 93.5527 67.5425 93.5527 67.6197 93.9161C68.3809 97.4989 71.15 100.298 74.6949 101.067Z" fill="#FFA012"/>
<path d="M90.0523 101.067C90.4118 101.145 90.4118 101.664 90.0523 101.742C86.5074 102.511 83.7383 105.31 82.9771 108.893C82.8998 109.256 82.3869 109.256 82.3097 108.893C81.5484 105.31 78.7794 102.511 75.2345 101.742C74.875 101.664 74.875 101.145 75.2345 101.067C78.7794 100.298 81.5484 97.4989 82.3097 93.9161C82.3869 93.5527 82.8998 93.5527 82.9771 93.9161C83.7383 97.4989 86.5074 100.298 90.0523 101.067Z" fill="#FFA012"/>
<path d="M105.409 101.067C105.768 101.145 105.768 101.664 105.409 101.742C101.864 102.511 99.0948 105.31 98.3335 108.893C98.2563 109.256 97.7434 109.256 97.6661 108.893C96.9049 105.31 94.1358 102.511 90.5909 101.742C90.2314 101.664 90.2314 101.145 90.5909 101.067C94.1358 100.298 96.9049 97.4989 97.6661 93.9161C97.7434 93.5527 98.2563 93.5527 98.3335 93.9161C99.0948 97.4989 101.864 100.298 105.409 101.067Z" fill="#FFA012"/>
<path d="M120.766 101.067C121.126 101.145 121.126 101.664 120.766 101.742C117.221 102.511 114.452 105.31 113.691 108.893C113.614 109.256 113.101 109.256 113.024 108.893C112.262 105.31 109.493 102.511 105.948 101.742C105.589 101.664 105.589 101.145 105.948 101.067C109.493 100.298 112.262 97.4989 113.024 93.9161C113.101 93.5527 113.614 93.5527 113.691 93.9161C114.452 97.4989 117.221 100.298 120.766 101.067Z" fill="#FFA012"/>
<path d="M136.124 101.067C136.483 101.145 136.483 101.664 136.124 101.742C132.579 102.511 129.81 105.31 129.048 108.893C128.971 109.256 128.458 109.256 128.381 108.893C127.62 105.31 124.851 102.511 121.306 101.742C120.946 101.664 120.946 101.145 121.306 101.067C124.851 100.298 127.62 97.4989 128.381 93.9161C128.458 93.5527 128.971 93.5527 129.048 93.9161C129.81 97.4989 132.579 100.298 136.124 101.067Z" fill="#FFA012"/>
<g style="mix-blend-mode:multiply">
<path fill-rule="evenodd" clip-rule="evenodd" d="M87.25 133.774H114.893C116.589 133.774 117.964 132.384 117.964 130.669V125.64C131.659 118.276 141 103.606 141 86.8867C141 83.6595 138.412 81 135.218 81H107.576C110.769 81 113.357 83.6595 113.357 86.8867C113.357 103.606 104.016 118.276 90.3214 125.64V130.669C90.3214 132.384 88.9464 133.774 87.25 133.774Z" fill="#F4F0EA"/>
</g>
<g filter="url(#filter0_d)">
<path d="M52.1602 47.9879C50.7288 48.7882 49.2925 48.5143 47.8513 47.1662C46.4276 45.8083 45.0033 43.855 43.5783 41.3063C42.6511 39.6479 42.0793 37.9283 41.8627 36.1475C41.6539 34.3396 41.9203 32.6439 42.6619 31.0607C43.3939 29.46 44.6501 28.1618 46.4307 27.1663C47.8622 26.366 49.3335 25.9444 50.8447 25.9014C52.3462 25.8411 53.7496 26.1792 55.0551 26.9158C56.378 27.6426 57.4494 28.7392 58.2692 30.2056C59.216 31.8989 59.671 33.512 59.6343 35.0447C59.5977 36.5775 59.1943 37.9258 58.4243 39.0895C57.6543 40.2533 56.6671 41.1719 55.4625 41.8453C54.485 42.3919 53.4932 42.7287 52.4873 42.8557C52.9044 43.3558 53.1958 43.7542 53.3618 44.051C54.289 45.7094 53.8885 47.0217 52.1602 47.9879ZM52.8267 37.9916C53.4552 37.6402 53.8695 37.1107 54.0696 36.4031C54.2774 35.6682 54.2105 34.9953 53.8689 34.3843C53.5176 33.7558 52.9793 33.3464 52.2542 33.1561C51.5368 32.9385 50.8639 33.0054 50.2355 33.3568C49.6245 33.6984 49.2151 34.2366 49.0073 34.9714C48.7897 35.6888 48.8566 36.3618 49.2079 36.9902C49.5495 37.6012 50.0878 38.0106 50.8226 38.2184C51.5477 38.4088 52.2158 38.3332 52.8267 37.9916Z" fill="white"/>
</g>
<g filter="url(#filter1_d)">
<path d="M78.7693 12.7538C77.4279 12.9781 76.5487 13.6016 76.1316 14.6244C75.731 15.6241 75.6428 16.7947 75.867 18.1361C76.0352 19.1421 76.3218 20.25 76.7268 21.4598C77.1285 22.6498 77.5894 23.7083 78.1093 24.6353C78.3693 25.0988 78.7476 25.4816 79.2442 25.7839C79.7376 26.0664 80.3196 26.1516 80.9903 26.0395C81.661 25.9274 82.1738 25.6591 82.5287 25.2348C82.9 24.7875 83.1332 24.3024 83.2283 23.7795C83.4152 22.7141 83.5017 21.5337 83.4879 20.2382C83.4708 18.9231 83.3749 17.7427 83.2001 16.6972C82.9891 15.4348 82.5135 14.4091 81.7733 13.6204C81.0528 12.8283 80.0515 12.5395 78.7693 12.7538ZM82.1775 33.3234C83.0061 33.1849 83.6749 32.7588 84.1842 32.045C84.6935 31.3313 84.8789 30.5602 84.7404 29.7317C84.6019 28.9032 84.1758 28.2343 83.462 27.725C82.7483 27.2157 81.9772 27.0303 81.1487 27.1688C80.3202 27.3073 79.6513 27.7334 79.142 28.4472C78.6327 29.1609 78.4473 29.9321 78.5858 30.7606C78.7243 31.5891 79.1504 32.258 79.8642 32.7672C80.5779 33.2765 81.349 33.4619 82.1775 33.3234Z" fill="white"/>
</g>
<g filter="url(#filter2_d)">
<path d="M112.273 34.492C110.403 33.9062 108.84 33.008 107.584 31.7974C106.354 30.5737 105.542 29.083 105.149 27.3254C104.763 25.5486 104.91 23.5723 105.592 21.3965C106.142 19.6406 107.056 18.1248 108.336 16.849C109.616 15.5731 111.106 14.6983 112.805 14.2246C114.504 13.7508 116.232 13.7888 117.988 14.3388C119.648 14.8588 121.029 15.637 122.129 16.6733C123.236 17.6905 123.975 18.8441 124.346 20.1341C124.737 21.43 124.726 22.7365 124.313 24.0534C124.05 24.8932 123.575 25.5407 122.887 25.9961C122.219 26.4574 121.436 26.5475 120.539 26.2666C119.871 26.0574 119.392 25.7815 119.101 25.4389C118.81 25.0963 118.539 24.6236 118.288 24.021C118.036 23.4183 117.755 22.9427 117.445 22.5941C117.161 22.2324 116.665 21.941 115.959 21.7198C115.062 21.4389 114.181 21.5403 113.317 22.0242C112.478 22.4949 111.906 23.217 111.601 24.1904C111.273 25.2401 111.262 26.2113 111.569 27.1039C111.901 27.9834 112.535 28.5696 113.47 28.8625C114.196 29.0897 114.801 29.164 115.287 29.0856C115.791 29.0131 116.345 28.8512 116.948 28.5998C117.456 28.3818 117.899 28.2377 118.278 28.1676C118.675 28.1034 119.122 28.149 119.618 28.3044C120.382 28.5435 120.908 28.9704 121.198 29.585C121.493 30.1806 121.524 30.8505 121.291 31.5949C121.016 32.4728 120.429 33.211 119.529 33.8093C118.648 34.4137 117.567 34.7877 116.285 34.9312C115.004 35.0748 113.666 34.9284 112.273 34.492Z" fill="white"/>
</g>
<g filter="url(#filter3_d)">
<path d="M148.649 38.8228C149.65 40.5078 150.332 42.1796 150.695 43.8383C151.075 45.5084 150.879 46.9034 150.108 48.0235C149.427 49.0117 148.65 49.5575 147.778 49.6608C146.905 49.7641 146.074 49.5435 145.283 48.999C144.147 48.2162 143.433 46.9599 143.143 45.2302C142.881 43.4954 142.873 41.4621 143.119 39.1302C142.314 40.2997 141.573 41.2344 140.896 41.9342C140.237 42.6454 139.519 43.1228 138.745 43.3662C137.981 43.5932 137.188 43.4231 136.364 42.8559C135.507 42.266 135.095 41.508 135.125 40.582C135.172 39.6674 135.458 38.7231 135.984 37.7491C136.525 36.7864 137.301 35.5722 138.31 34.1062C139.025 33.0685 139.879 31.8471 140.871 30.4419C141.891 29.0316 142.536 28.1648 142.807 27.8416C143.691 26.629 144.627 25.8165 145.615 25.4043C146.615 24.9756 147.551 25.0619 148.424 25.6632C149.429 26.3552 149.834 27.2656 149.639 28.3944C149.461 29.5345 148.765 30.9858 147.551 32.7482L147.041 33.4894C148.924 32.5526 150.832 31.8631 152.764 31.4207C154.696 30.9784 156.213 31.1373 157.317 31.8974C158.091 32.4306 158.521 33.1638 158.607 34.0971C158.72 35.0253 158.482 35.9176 157.892 36.7741C157.098 37.9271 155.844 38.6904 154.129 39.0639C152.443 39.4322 150.616 39.3519 148.649 38.8228Z" fill="white"/>
</g>
</g>
<defs>
<filter id="filter0_d" x="41.7939" y="25.8945" width="17.8425" height="26.5405" filterUnits="userSpaceOnUse" color-interpolation-filters="sRGB">
<feFlood flood-opacity="0" result="BackgroundImageFix"/>
<feColorMatrix in="SourceAlpha" type="matrix" values="0 0 0 0 0 0 0 0 0 0 0 0 0 0 0 0 0 0 127 0" result="hardAlpha"/>
<feOffset dy="4"/>
<feComposite in2="hardAlpha" operator="out"/>
<feColorMatrix type="matrix" values="0 0 0 0 1 0 0 0 0 0.42 0 0 0 0 0 0 0 0 0.25 0"/>
<feBlend mode="normal" in2="BackgroundImageFix" result="effect1_dropShadow"/>
<feBlend mode="normal" in="SourceGraphic" in2="effect1_dropShadow" result="shape"/>
</filter>
<filter id="filter1_d" x="75.7461" y="12.6853" width="9.03853" height="24.6825" filterUnits="userSpaceOnUse" color-interpolation-filters="sRGB">
<feFlood flood-opacity="0" result="BackgroundImageFix"/>
<feColorMatrix in="SourceAlpha" type="matrix" values="0 0 0 0 0 0 0 0 0 0 0 0 0 0 0 0 0 0 127 0" result="hardAlpha"/>
<feOffset dy="4"/>
<feComposite in2="hardAlpha" operator="out"/>
<feColorMatrix type="matrix" values="0 0 0 0 1 0 0 0 0 0.42 0 0 0 0 0 0 0 0 0.25 0"/>
<feBlend mode="normal" in2="BackgroundImageFix" result="effect1_dropShadow"/>
<feBlend mode="normal" in="SourceGraphic" in2="effect1_dropShadow" result="shape"/>
</filter>
<filter id="filter2_d" x="104.939" y="13.8958" width="19.6916" height="25.0889" filterUnits="userSpaceOnUse" color-interpolation-filters="sRGB">
<feFlood flood-opacity="0" result="BackgroundImageFix"/>
<feColorMatrix in="SourceAlpha" type="matrix" values="0 0 0 0 0 0 0 0 0 0 0 0 0 0 0 0 0 0 127 0" result="hardAlpha"/>
<feOffset dy="4"/>
<feComposite in2="hardAlpha" operator="out"/>
<feColorMatrix type="matrix" values="0 0 0 0 1 0 0 0 0 0.42 0 0 0 0 0 0 0 0 0.25 0"/>
<feBlend mode="normal" in2="BackgroundImageFix" result="effect1_dropShadow"/>
<feBlend mode="normal" in="SourceGraphic" in2="effect1_dropShadow" result="shape"/>
</filter>
<filter id="filter3_d" x="135.124" y="25.1367" width="23.5105" height="28.5488" filterUnits="userSpaceOnUse" color-interpolation-filters="sRGB">
<feFlood flood-opacity="0" result="BackgroundImageFix"/>
<feColorMatrix in="SourceAlpha" type="matrix" values="0 0 0 0 0 0 0 0 0 0 0 0 0 0 0 0 0 0 127 0" result="hardAlpha"/>
<feOffset dy="4"/>
<feComposite in2="hardAlpha" operator="out"/>
<feColorMatrix type="matrix" values="0 0 0 0 1 0 0 0 0 0.42 0 0 0 0 0 0 0 0 0.25 0"/>
<feBlend mode="normal" in2="BackgroundImageFix" result="effect1_dropShadow"/>
<feBlend mode="normal" in="SourceGraphic" in2="effect1_dropShadow" result="shape"/>
</filter>
<clipPath id="clip0">
<rect width="196" height="112" fill="white"/>
</clipPath>
</defs>
</svg>
