<svg width="18" height="18" viewBox="0 0 18 18" fill="none" xmlns="http://www.w3.org/2000/svg">
<circle cx="9" cy="9" r="9" fill="#7DA2FF"/>
<path d="M7.76 10.1194C7.76 9.66712 7.85333 9.2872 8.04 8.97965C8.22667 8.67209 8.54667 8.35097 9 8.01628C9.4 7.72682 9.68444 7.47806 9.85333 7.27001C10.0311 7.05292 10.12 6.79964 10.12 6.51018C10.12 6.22071 10.0133 6.00362 9.8 5.85889C9.59556 5.70511 9.30667 5.62822 8.93333 5.62822C8.56 5.62822 8.19111 5.68702 7.82667 5.80461C7.46222 5.92221 7.08889 6.08051 6.70667 6.27951L6 4.82768C6.43556 4.58345 6.90667 4.38444 7.41333 4.23066C7.92 4.07689 8.47556 4 9.08 4C10.0044 4 10.72 4.22614 11.2267 4.67843C11.7422 5.13071 12 5.70511 12 6.40163C12 6.7725 11.9422 7.09362 11.8267 7.36499C11.7111 7.63636 11.5378 7.88964 11.3067 8.12483C11.0756 8.35097 10.7867 8.59521 10.44 8.85753C10.1822 9.04749 9.98222 9.21031 9.84 9.346C9.69778 9.48168 9.6 9.61284 9.54667 9.73948C9.50222 9.86612 9.48 10.0244 9.48 10.2144V10.6079H7.76V10.1194ZM7.54667 12.8738C7.54667 12.4577 7.65778 12.1682 7.88 12.0054C8.10222 11.8336 8.37333 11.7476 8.69333 11.7476C9.00445 11.7476 9.27111 11.8336 9.49333 12.0054C9.71556 12.1682 9.82667 12.4577 9.82667 12.8738C9.82667 13.2718 9.71556 13.5613 9.49333 13.7422C9.27111 13.9141 9.00445 14 8.69333 14C8.37333 14 8.10222 13.9141 7.88 13.7422C7.65778 13.5613 7.54667 13.2718 7.54667 12.8738Z" fill="white"/>
</svg>
