<svg width="59" height="64" viewBox="0 0 59 64" fill="none" xmlns="http://www.w3.org/2000/svg">
<g clip-path="url(#clip0)">
<path d="M2.29864 29.4526C2.29864 29.4526 1.86399 25.2695 2.29867 23.9614C2.73335 22.6535 3.51182 21.4694 3.62302 21.0485C3.73422 20.6277 2.66771 18.402 4.46713 15.4766C6.26653 12.5513 7.43413 13.1698 7.92947 12.5513C8.4248 11.9327 8.39953 9.84386 10.6336 7.85136C12.8677 5.85886 14.9148 6.04646 14.9148 6.04646C14.9148 6.04646 15.9105 3.43033 18.3266 2.43663C20.7427 1.44291 23.1789 2.05639 23.1789 2.05639C23.1789 2.05639 25.3524 0.0638789 28.3953 0.00303927C31.4381 -0.0578004 32.3073 0.814236 32.9898 0.875075C33.6722 0.935915 35.2845 0.129789 38.1403 1.18435C40.9962 2.24397 41.0365 3.85116 41.6785 4.10972C42.3204 4.36828 44.039 3.86128 46.6471 5.97547C49.2552 8.08965 48.8255 9.06309 49.1946 9.46361C49.5584 9.86414 52.0099 9.87935 53.3544 13.3219C54.3451 15.8568 53.8143 17.7175 53.9154 17.9914C54.0165 18.2651 55.4217 19.7302 56.0283 21.2311C57.2923 25.9582 56.7946 29.4526 56.7946 29.4526C56.7946 29.4526 55.4745 30.8633 52.3155 32.947C48.9745 35.1526 11.5131 31.2696 9.02629 30.4737C4.72994 29.1098 2.29864 29.4526 2.29864 29.4526Z" fill="white"/>
<path d="M6.23238 21.9205C6.23238 21.9205 5.95437 18.7872 6.79343 17.0635C7.97114 14.635 10.2709 14.3865 10.2709 14.3865C10.2709 14.3865 10.5287 11.6183 12.505 10.0923C14.9261 8.22652 15.8561 8.72338 16.6649 7.97302C17.4735 7.22773 17.9689 5.91969 19.9554 5.04764C21.9418 4.17562 23.5541 4.73838 24.2365 4.42404C24.919 4.1097 26.0106 2.83206 28.1841 2.68504C30.9793 2.49744 31.1613 3.58242 32.7635 3.75481C33.9007 3.87649 34.75 3.20218 37.171 3.94747C39.5921 4.69276 39.6731 6.16303 40.4414 6.66497C41.2095 7.1669 43.1051 6.70554 45.1573 8.28229C47.0173 9.71203 46.9971 11.0353 47.5176 11.5828C48.0332 12.1304 49.5647 12.3281 50.6818 15.2586C51.6119 17.6973 50.9245 18.4172 51.1771 19.1827C51.4298 19.9483 52.8148 20.7494 53.6589 23.041C54.7153 25.9055 54.4019 27.4012 54.4019 27.4012C54.4019 27.4012 49.312 34.2001 26.7183 33.9364C10.4529 33.7488 4.61999 28.0856 4.61999 28.0856C4.61999 28.0856 4.37232 25.0335 4.99403 23.8523C5.61573 22.6709 6.23238 21.9205 6.23238 21.9205Z" fill="white"/>
<path d="M27.8165 32.2631C28.3169 33.3936 30.2881 33.5811 31.9459 31.7205C33.432 30.0475 32.5626 27.4719 30.9704 27.6899C29.5198 27.8876 29.9949 29.3985 29.3023 29.9765C28.6101 30.5544 27.3817 31.2794 27.8165 32.2631Z" fill="#F8F8F8"/>
<path d="M35.5643 25.3628C35.9939 26.2858 38.5717 26.088 39.5471 24.3845C40.5226 22.6758 40.3812 20.1815 38.9658 20.2067C37.1209 20.2422 37.8084 22.1333 37.1563 22.7113C36.5044 23.2892 34.8414 23.8014 35.5643 25.3628Z" fill="#F8F8F8"/>
<path d="M45.5219 15.9531C44.4604 16.2978 45.0163 17.6973 44.5818 18.6402C44.147 19.5833 42.9895 20.6378 43.8943 21.4388C44.7992 22.2399 46.8612 20.9319 47.1544 18.9343C47.4376 16.9366 46.6439 15.5932 45.5219 15.9531Z" fill="#F8F8F8"/>
<path d="M41.0414 28.5879C40.3641 29.6778 39.0853 29.1302 38.8325 30.2609C38.5798 31.3865 41.1879 31.7869 42.6334 30.4434C44.0842 29.0999 43.685 26.8133 42.7801 26.6308C41.8753 26.4432 41.5821 27.7157 41.0414 28.5879Z" fill="#F8F8F8"/>
<path d="M36.9593 16.1456C37.5557 16.8149 39.9467 16.1051 40.7403 13.7171C41.5338 11.3292 39.9667 9.78788 38.9104 10.3304C37.854 10.8728 38.6071 12.0238 38.3544 12.769C38.1018 13.5143 35.7918 14.8376 36.9593 16.1456Z" fill="#F8F8F8"/>
<g style="mix-blend-mode:multiply">
<g style="mix-blend-mode:multiply">
<path fill-rule="evenodd" clip-rule="evenodd" d="M22.125 34.2633C23.7287 34.4132 25.4636 34.5074 27.3372 34.529C31.8275 34.5814 35.6267 34.3547 38.8318 33.9581C45.8576 34.338 51.7061 34.3508 52.9355 33.5393C56.0944 31.4555 57.4145 30.0449 57.4145 30.0449C57.4145 30.0449 57.9121 26.5505 56.648 21.8232C56.2288 20.7858 55.4276 19.765 54.9397 19.1434V19.1433H54.9395V19.1431H54.9393C54.7218 18.8658 54.5666 18.668 54.5353 18.5835C54.5109 18.517 54.5235 18.3569 54.5427 18.116C54.6024 17.3657 54.7243 15.8331 53.9743 13.9141C52.9407 11.2676 51.2528 10.6467 50.3622 10.319C50.0944 10.2205 49.8986 10.1486 49.8145 10.0559C49.7175 9.95073 49.6759 9.80605 49.6195 9.61161C49.4617 9.06551 49.1903 8.12679 47.267 6.56775C45.3077 4.9796 43.8506 4.87054 42.9746 4.80499C42.6845 4.78328 42.458 4.76633 42.2984 4.702C42.0939 4.61962 41.9503 4.40037 41.7574 4.10554V4.10552C41.3449 3.47493 40.7062 2.49865 38.7602 1.77663C36.629 0.989626 35.1902 1.23892 34.3137 1.3908C34.0158 1.44242 33.7827 1.48279 33.6097 1.46736C33.412 1.44974 33.1988 1.36408 32.9215 1.25276C32.2415 0.979671 31.1767 0.5521 29.0152 0.595325C27.368 0.628255 25.9757 1.22716 25.0448 1.76967C25.0512 1.77198 25.0575 1.7743 25.0637 1.77663C27.0097 2.49865 27.6484 3.47493 28.0611 4.10552V4.10554C28.254 4.40037 28.3975 4.61962 28.6019 4.702C28.7617 4.76633 28.988 4.78328 29.2781 4.80499C30.1541 4.87054 31.6114 4.9796 33.5705 6.56775C35.4939 8.12679 35.7651 9.06551 35.9231 9.61161C35.9793 9.80607 36.0211 9.95073 36.118 10.0559C36.2022 10.1486 36.3979 10.2205 36.6657 10.319C37.5563 10.6467 39.2443 11.2676 40.278 13.9141C41.0279 15.8331 40.906 17.3657 40.8462 18.116C40.8272 18.3569 40.8144 18.517 40.839 18.5835C40.8701 18.668 41.0253 18.8658 41.243 19.1431L41.2431 19.1433V19.1434C41.7312 19.765 42.5323 20.7858 42.9517 21.8232C44.2157 26.5505 43.718 30.0449 43.718 30.0449C43.718 30.0449 42.3981 31.4555 39.2389 33.5393C38.0098 34.3508 32.1612 34.338 25.1353 33.9581C24.1849 34.0758 23.1824 34.1783 22.125 34.2633Z" fill="#F8F8F8"/>
</g>
</g>
<g style="mix-blend-mode:multiply">
<g style="mix-blend-mode:multiply">
<path d="M23.1777 16.4443C23.1777 15.8606 23.6494 15.3875 24.2312 15.3875C24.8132 15.3875 25.2849 15.8606 25.2849 16.4443C25.2849 17.028 24.8132 17.5011 24.2312 17.5011C23.6494 17.5011 23.1777 17.028 23.1777 16.4443Z" fill="black"/>
</g>
</g>
<g style="mix-blend-mode:multiply">
<g style="mix-blend-mode:multiply">
<path d="M34.7686 16.4443C34.7686 15.8606 35.2402 15.3875 35.822 15.3875C36.404 15.3875 36.8757 15.8606 36.8757 16.4443C36.8757 17.028 36.404 17.5011 35.822 17.5011C35.2402 17.5011 34.7686 17.028 34.7686 16.4443Z" fill="black"/>
</g>
</g>
<path d="M0 32.0771C0 29.8798 1.77582 28.0691 3.96639 28.0691H55.0336C57.2243 28.0691 59 29.8798 59 32.0771C59 48.4193 45.7924 61.8865 29.5 61.8865C13.2076 61.8865 0 48.4193 0 32.0771Z" fill="#F4F0EA"/>
<path d="M15.8027 56.6024H43.1957V61.8864C43.1957 63.0538 42.2523 64 41.0885 64H17.9099C16.7461 64 15.8027 63.0538 15.8027 61.8864V56.6024Z" fill="#F4F0EA"/>
<path d="M13.5109 41.5777C13.7575 41.6308 13.7575 41.9838 13.5109 42.0368C11.0789 42.5608 9.17918 44.4662 8.65695 46.9056C8.60399 47.1531 8.25206 47.1531 8.19907 46.9056C7.67686 44.4662 5.77712 42.5608 3.34516 42.0368C3.09849 41.9838 3.09849 41.6308 3.34516 41.5777C5.77712 41.0539 7.67686 39.1483 8.19907 36.7089C8.25206 36.4614 8.60399 36.4614 8.65696 36.7089C9.17918 39.1483 11.0789 41.0539 13.5109 41.5777Z" fill="#FFA012"/>
<path d="M24.048 41.5777C24.2946 41.6308 24.2946 41.9838 24.048 42.0368C21.616 42.5608 19.7164 44.4662 19.1941 46.9056C19.1411 47.1531 18.7891 47.1531 18.7362 46.9056C18.2138 44.4662 16.3142 42.5608 13.8822 42.0368C13.6356 41.9838 13.6356 41.6308 13.8822 41.5777C16.3142 41.0539 18.2138 39.1483 18.7362 36.7089C18.7891 36.4614 19.1411 36.4614 19.1941 36.7089C19.7164 39.1483 21.616 41.0539 24.048 41.5777Z" fill="#FFA012"/>
<path d="M34.5812 41.5777C34.8278 41.6308 34.8278 41.9838 34.5812 42.0368C32.1492 42.5608 30.2496 44.4662 29.7273 46.9056C29.6743 47.1531 29.3225 47.1531 29.2694 46.9056C28.7472 44.4662 26.8474 42.5608 24.4155 42.0368C24.1688 41.9838 24.1688 41.6308 24.4155 41.5777C26.8474 41.0539 28.7472 39.1483 29.2694 36.7089C29.3225 36.4614 29.6743 36.4614 29.7273 36.7089C30.2496 39.1483 32.1492 41.0539 34.5812 41.5777Z" fill="#FFA012"/>
<path d="M45.1173 41.5777C45.3639 41.6308 45.3639 41.9838 45.1173 42.0368C42.6853 42.5608 40.7857 44.4662 40.2634 46.9056C40.2105 47.1531 39.8586 47.1531 39.8055 46.9056C39.2833 44.4662 37.3835 42.5608 34.9516 42.0368C34.7049 41.9838 34.7049 41.6308 34.9516 41.5777C37.3835 41.0539 39.2833 39.1483 39.8055 36.7089C39.8586 36.4614 40.2105 36.4614 40.2634 36.7089C40.7857 39.1483 42.6853 41.0539 45.1173 41.5777Z" fill="#FFA012"/>
<path d="M55.6535 41.5777C55.9 41.6308 55.9 41.9838 55.6535 42.0368C53.2214 42.5608 51.3217 44.4662 50.7994 46.9056C50.7465 47.1531 50.3946 47.1531 50.3417 46.9056C49.8193 44.4662 47.9197 42.5608 45.4876 42.0368C45.2411 41.9838 45.2411 41.6308 45.4876 41.5777C47.9197 41.0539 49.8193 39.1483 50.3417 36.7089C50.3946 36.4614 50.7465 36.4614 50.7994 36.7089C51.3217 39.1483 53.2214 41.0539 55.6535 41.5777Z" fill="#FFA012"/>
<g style="mix-blend-mode:multiply">
<g style="mix-blend-mode:multiply">
<path fill-rule="evenodd" clip-rule="evenodd" d="M21.3057 63.8284H40.2699C41.4337 63.8284 42.377 62.8821 42.377 61.7149V58.2907C51.7724 53.2771 58.1807 43.2888 58.1807 31.9055C58.1807 29.7082 56.4049 27.8975 54.2142 27.8975H35.25C37.4405 27.8975 39.2164 29.7082 39.2164 31.9055C39.2164 43.2888 32.8082 53.2771 23.4128 58.2907V61.7149C23.4128 62.8821 22.4694 63.8284 21.3057 63.8284Z" fill="#F4F0EA"/>
</g>
</g>
<path d="M22.9442 19.282C24.5282 19.282 25.8123 17.9963 25.8123 16.4102C25.8123 14.8242 24.5282 13.5385 22.9442 13.5385C21.3602 13.5385 20.0762 14.8242 20.0762 16.4102C20.0762 17.9963 21.3602 19.282 22.9442 19.282Z" fill="#FFFFE9" fill-opacity="0.1" stroke="#FFE601"/>
<path d="M18.0273 16.8205C18.0273 16.5939 18.2107 16.4103 18.4371 16.4103H20.076C20.3023 16.4103 20.4857 16.5939 20.4857 16.8205C20.4857 17.0472 20.3023 17.2308 20.076 17.2308H18.4371C18.2107 17.2308 18.0273 17.0472 18.0273 16.8205Z" fill="#FFE601"/>
<path d="M18.4371 16.4103C18.6634 16.4103 18.8468 16.5939 18.8468 16.8205V25.8462C18.8468 26.0728 18.6634 26.2564 18.4371 26.2564C18.2107 26.2564 18.0273 26.0728 18.0273 25.8462V16.8205C18.0273 16.5939 18.2107 16.4103 18.4371 16.4103Z" fill="#FFE601"/>
<path d="M35.6476 19.6923C34.2819 19.6923 33.599 17.641 31.5504 17.641C29.5018 17.641 29.5018 19.0085 29.5018 19.0085C29.5018 19.0085 29.5018 17.641 27.4531 17.641C25.4045 17.641 24.7218 19.6923 23.3559 19.6923C22.6732 19.6923 21.9902 19.0085 21.9902 19.0085C21.9902 19.0085 22.6732 22.4274 25.4045 22.4274C28.819 22.4274 29.5018 20.3761 29.5018 20.3761C29.5018 20.3761 30.1847 22.4274 33.599 22.4274C36.3305 22.4274 37.0134 19.0085 37.0134 19.0085C37.0134 19.0085 36.3305 19.6923 35.6476 19.6923Z" fill="black"/>
</g>
<defs>
<clipPath id="clip0">
<rect width="59" height="64" fill="white"/>
</clipPath>
</defs>
</svg>
