<svg width="240" height="120" viewBox="0 0 240 120" fill="none" xmlns="http://www.w3.org/2000/svg">
<path d="M0 10C0 4.47715 4.47715 0 10 0H230C235.523 0 240 4.47715 240 10V110C240 115.523 235.523 120 230 120H10C4.47716 120 0 115.523 0 110V10Z" fill="#2F6993"/>
<g filter="url(#filter0_d)">
<path fill-rule="evenodd" clip-rule="evenodd" d="M141.036 89.4652C139.494 91.5455 139.845 94.4198 141.789 95.8613C151.86 103.329 165.209 103.796 176.261 98.1629L179.29 100.409C180.323 101.175 181.824 100.9 182.644 99.7947L198.966 77.7828C199.786 76.6776 199.613 75.161 198.58 74.3952L195.551 72.149C197.732 59.9374 193.408 47.2989 183.338 39.831C181.394 38.3895 178.541 38.8881 176.999 40.9684L141.036 89.4652Z" fill="#F4F0EA"/>
</g>
<path d="M159.709 89.2627C159.93 89.0633 160.242 89.2949 160.115 89.564C158.866 92.2172 159.214 95.2714 161.004 97.3676C161.186 97.5802 160.938 97.9144 160.682 97.8024C158.156 96.6981 155.132 97.2521 152.956 99.218C152.736 99.4174 152.423 99.1858 152.55 98.9167C153.799 96.2635 153.451 93.2093 151.661 91.113C151.479 90.9004 151.727 90.5662 151.983 90.6782C154.509 91.7826 157.533 91.2286 159.709 89.2627Z" fill="#FFA012"/>
<path d="M167.128 79.2576C167.348 79.0582 167.661 79.2898 167.534 79.5589C166.285 82.2121 166.633 85.2662 168.423 87.3625C168.605 87.5751 168.357 87.9093 168.101 87.7973C165.575 86.693 162.551 87.247 160.375 89.2129C160.155 89.4122 159.842 89.1807 159.969 88.9116C161.218 86.2584 160.87 83.2042 159.08 81.1079C158.898 80.8953 159.146 80.5611 159.402 80.6731C161.928 81.7775 164.952 81.2235 167.128 79.2576Z" fill="#FFA012"/>
<path d="M174.548 69.2515C174.768 69.0521 175.081 69.2837 174.954 69.5528C173.705 72.206 174.053 75.2601 175.843 77.3564C176.025 77.569 175.777 77.9032 175.521 77.7912C172.995 76.6869 169.971 77.2409 167.795 79.2068C167.574 79.4061 167.262 79.1746 167.389 78.9055C168.638 76.2523 168.29 73.1981 166.5 71.1018C166.318 70.8892 166.566 70.555 166.822 70.667C169.348 71.7714 172.372 71.2174 174.548 69.2515Z" fill="#FFA012"/>
<path d="M181.967 59.2463C182.187 59.047 182.5 59.2785 182.373 59.5476C181.124 62.2009 181.472 65.255 183.262 67.3513C183.444 67.5639 183.196 67.8981 182.94 67.7861C180.414 66.6818 177.39 67.2358 175.214 69.2017C174.993 69.401 174.681 69.1695 174.808 68.9004C176.057 66.2471 175.709 63.193 173.919 61.0967C173.737 60.8841 173.985 60.5499 174.241 60.6619C176.767 61.7662 179.791 61.2122 181.967 59.2463Z" fill="#FFA012"/>
<path d="M189.387 49.241C189.607 49.0416 189.92 49.2732 189.793 49.5423C188.544 52.1955 188.892 55.2496 190.682 57.3459C190.864 57.5585 190.616 57.8927 190.36 57.7807C187.834 56.6764 184.81 57.2304 182.634 59.1963C182.413 59.3956 182.101 59.1641 182.228 58.895C183.477 56.2418 183.129 53.1876 181.339 51.0913C181.157 50.8787 181.405 50.5445 181.661 50.6565C184.187 51.7609 187.21 51.2068 189.387 49.241Z" fill="#FFA012"/>
<g style="mix-blend-mode:multiply">
<g style="mix-blend-mode:multiply">
<path fill-rule="evenodd" clip-rule="evenodd" d="M185.612 95.7925L198.967 77.7827C199.786 76.6775 199.614 75.1609 198.581 74.3951L195.552 72.1488C197.732 59.9373 193.409 47.299 183.338 39.8311C181.394 38.3897 178.542 38.8882 176.999 40.9685L163.644 58.9783C165.187 56.8979 168.039 56.3994 169.983 57.8409C180.054 65.3087 184.377 77.947 182.197 90.1585L185.226 92.4048C186.259 93.1706 186.431 94.6873 185.612 95.7925Z" fill="#F4F0EA"/>
</g>
</g>
<g filter="url(#filter1_d)">
<path d="M66.2284 97.4387C66.2284 97.4387 65.7145 92.8315 66.2284 91.3908C66.7423 89.9502 67.6627 88.646 67.7942 88.1825C67.9256 87.719 66.6647 85.2676 68.7921 82.0456C70.9195 78.8238 72.2999 79.505 72.8856 78.8238C73.4712 78.1425 73.4413 75.8419 76.0826 73.6474C78.7239 71.4528 81.1442 71.6595 81.1442 71.6595C81.1442 71.6595 82.3214 68.7781 85.1778 67.6837C88.0343 66.5892 90.9146 67.2649 90.9146 67.2649C90.9146 67.2649 93.4844 65.0704 97.0818 65.0033C100.679 64.9363 101.707 65.8968 102.514 65.9638C103.321 66.0308 105.227 65.1429 108.603 66.3044C111.98 67.4715 112.027 69.2416 112.786 69.5264C113.545 69.8112 115.577 69.2528 118.661 71.5813C121.744 73.9098 121.236 74.9819 121.672 75.4231C122.103 75.8642 125.001 75.8809 126.591 79.6725C127.762 82.4644 127.134 84.5138 127.254 84.8153C127.373 85.1168 129.035 86.7306 129.752 88.3835C131.246 93.59 130.658 97.4387 130.658 97.4387C130.658 97.4387 129.097 98.9923 125.362 101.287C121.412 103.716 77.4401 100.877 74.5 100C67.5 101 66.2284 97.4387 66.2284 97.4387Z" fill="white"/>
</g>
<path d="M70.8773 89.1429C70.8773 89.1429 70.5486 85.692 71.5406 83.7934C72.933 81.1187 75.652 80.8451 75.652 80.8451C75.652 80.8451 75.9568 77.7963 78.2933 76.1155C81.1558 74.0606 82.2553 74.6078 83.2114 73.7814C84.1675 72.9605 84.7532 71.5198 87.1017 70.5594C89.4502 69.599 91.3565 70.2188 92.1632 69.8726C92.97 69.5264 94.2607 68.1192 96.8304 67.9573C100.135 67.7507 100.35 68.9456 102.244 69.1355C103.589 69.2695 104.593 68.5268 107.455 69.3477C110.318 70.1685 110.413 71.7879 111.322 72.3407C112.23 72.8935 114.471 72.3854 116.897 74.122C119.096 75.6967 119.072 77.1541 119.688 77.7571C120.298 78.3602 122.108 78.578 123.429 81.8055C124.528 84.4914 123.716 85.2844 124.014 86.1276C124.313 86.9707 125.951 87.853 126.949 90.377C128.198 93.5319 127.827 95.1791 127.827 95.1791C127.827 95.1791 121.712 103.29 94.9999 103C75 103.5 68.9997 97.5 68.9997 97.5C68.9997 97.5 68.6782 92.5715 69.4132 91.2704C70.1482 89.9694 70.8773 89.1429 70.8773 89.1429Z" fill="white"/>
<path d="M96.3946 100.534C96.9861 101.779 99.3168 101.986 101.277 99.9366C103.034 98.0938 102.006 95.2571 100.123 95.4972C98.4084 95.715 98.9701 97.3791 98.1514 98.0156C97.3328 98.6522 95.8806 99.4508 96.3946 100.534Z" fill="#F8F8F8"/>
<path d="M105.555 92.9339C106.063 93.9503 109.11 93.7325 110.264 91.8562C111.417 89.9744 111.25 87.2272 109.577 87.2551C107.395 87.2941 108.208 89.3769 107.437 90.0135C106.666 90.6501 104.7 91.2141 105.555 92.9339Z" fill="#F8F8F8"/>
<path d="M117.326 82.5701C116.071 82.9498 116.729 84.4911 116.215 85.5297C115.701 86.5682 114.332 87.7297 115.402 88.612C116.472 89.4942 118.91 88.0536 119.256 85.8536C119.591 83.6534 118.653 82.1737 117.326 82.5701Z" fill="#F8F8F8"/>
<path d="M112.032 96.4858C111.231 97.6863 109.719 97.0832 109.421 98.3285C109.122 99.5681 112.205 100.009 113.914 98.5295C115.63 97.0497 115.157 94.5313 114.088 94.3303C113.018 94.1237 112.671 95.5253 112.032 96.4858Z" fill="#F8F8F8"/>
<path d="M107.204 82.7827C107.909 83.5198 110.735 82.7381 111.674 80.108C112.612 77.478 110.759 75.7804 109.51 76.3779C108.261 76.9754 109.152 78.243 108.853 79.0638C108.554 79.8846 105.823 81.3421 107.204 82.7827Z" fill="#F8F8F8"/>
<g style="mix-blend-mode:multiply">
<g style="mix-blend-mode:multiply">
<path fill-rule="evenodd" clip-rule="evenodd" d="M89.666 102.737C91.562 102.902 93.6132 103.006 95.8282 103.03C101.137 103.087 104.711 103.174 108.5 102.737C116.806 103.155 124.547 102.833 126 101.94C129.735 99.6447 131.388 98.091 131.388 98.091C131.388 98.091 131.976 94.2423 130.482 89.0358C129.986 87.893 129.039 86.7689 128.462 86.0843C128.205 85.779 128.021 85.5606 127.984 85.4676C127.955 85.3944 127.97 85.218 127.993 84.9527C128.063 84.1263 128.207 82.4384 127.321 80.3248C126.099 77.4099 124.103 76.7261 123.05 76.3652C122.734 76.2567 122.502 76.1775 122.403 76.0754C122.288 75.9596 122.239 75.8002 122.172 75.5861C121.985 74.9846 121.665 73.9507 119.391 72.2336C117.075 70.4845 115.352 70.3643 114.316 70.2921C113.973 70.2682 113.705 70.2496 113.517 70.1787C113.275 70.088 113.105 69.8465 112.877 69.5218C112.389 68.8273 111.634 67.752 109.333 66.9568C106.814 66.09 105.113 66.3645 104.077 66.5318C103.724 66.5887 103.449 66.6331 103.244 66.6161C103.01 66.5967 102.758 66.5024 102.43 66.3798C101.627 66.079 100.368 65.6081 97.8121 65.6557C95.8647 65.692 94.2186 66.3516 93.1181 66.9491C93.1256 66.9517 93.1331 66.9542 93.1404 66.9568C95.4412 67.752 96.1963 68.8272 96.6841 69.5218C96.9121 69.8465 97.0818 70.088 97.3236 70.1787C97.5124 70.2496 97.7801 70.2682 98.123 70.2921C99.1587 70.3643 100.882 70.4845 103.198 72.2336C105.472 73.9507 105.792 74.9846 105.979 75.5861C106.046 75.8002 106.095 75.9596 106.21 76.0754C106.309 76.1775 106.541 76.2567 106.857 76.3652C107.91 76.7261 109.906 77.4099 111.128 80.3248C112.014 82.4384 111.87 84.1263 111.8 84.9527C111.777 85.218 111.762 85.3944 111.791 85.4676C111.828 85.5606 112.011 85.7785 112.269 86.0838C112.846 86.7684 113.793 87.893 114.289 89.0358C115.783 94.2423 115.195 98.091 115.195 98.091C115.195 98.091 113.634 99.6447 109.9 101.94C108.446 102.833 101.532 102.819 93.2251 102.401C92.1014 102.53 90.9161 102.643 89.666 102.737Z" fill="#F8F8F8"/>
</g>
</g>
<g style="mix-blend-mode:multiply">
<g style="mix-blend-mode:multiply">
<path d="M90.9121 83.1112C90.9121 82.4684 91.4698 81.9473 92.1577 81.9473C92.8457 81.9473 93.4033 82.4684 93.4033 83.1112C93.4033 83.754 92.8457 84.2751 92.1577 84.2751C91.4698 84.2751 90.9121 83.754 90.9121 83.1112Z" fill="black"/>
</g>
</g>
<g style="mix-blend-mode:multiply">
<g style="mix-blend-mode:multiply">
<path d="M104.613 83.1112C104.613 82.4684 105.171 81.9473 105.859 81.9473C106.547 81.9473 107.105 82.4684 107.105 83.1112C107.105 83.754 106.547 84.2751 105.859 84.2751C105.171 84.2751 104.613 83.754 104.613 83.1112Z" fill="black"/>
</g>
</g>
<path d="M103.5 88C101.7 86.8087 97.88 85.9026 95 87.8087" stroke="black" stroke-linecap="round"/>
<defs>
<filter id="filter0_d" x="136.072" y="39.0083" width="67.411" height="70.9716" filterUnits="userSpaceOnUse" color-interpolation-filters="sRGB">
<feFlood flood-opacity="0" result="BackgroundImageFix"/>
<feColorMatrix in="SourceAlpha" type="matrix" values="0 0 0 0 0 0 0 0 0 0 0 0 0 0 0 0 0 0 127 0" result="hardAlpha"/>
<feOffset dy="4"/>
<feGaussianBlur stdDeviation="2"/>
<feComposite in2="hardAlpha" operator="out"/>
<feColorMatrix type="matrix" values="0 0 0 0 0.883333 0 0 0 0 0.358044 0 0 0 0 0.0625694 0 0 0 0.6 0"/>
<feBlend mode="normal" in2="BackgroundImageFix" result="effect1_dropShadow"/>
<feBlend mode="normal" in="SourceGraphic" in2="effect1_dropShadow" result="shape"/>
</filter>
<filter id="filter1_d" x="62" y="65" width="72.7719" height="45.2477" filterUnits="userSpaceOnUse" color-interpolation-filters="sRGB">
<feFlood flood-opacity="0" result="BackgroundImageFix"/>
<feColorMatrix in="SourceAlpha" type="matrix" values="0 0 0 0 0 0 0 0 0 0 0 0 0 0 0 0 0 0 127 0" result="hardAlpha"/>
<feOffset dy="4"/>
<feGaussianBlur stdDeviation="2"/>
<feComposite in2="hardAlpha" operator="out"/>
<feColorMatrix type="matrix" values="0 0 0 0 0.883333 0 0 0 0 0.358044 0 0 0 0 0.0625694 0 0 0 0.6 0"/>
<feBlend mode="normal" in2="BackgroundImageFix" result="effect1_dropShadow"/>
<feBlend mode="normal" in="SourceGraphic" in2="effect1_dropShadow" result="shape"/>
</filter>
</defs>
</svg>
