<svg width="196" height="120" viewBox="0 0 196 120" fill="none" xmlns="http://www.w3.org/2000/svg">
<g clip-path="url(#clip0)">
<rect width="196" height="120" rx="10" fill="#FFA012"/>
<g clip-path="url(#clip1)">
<path d="M165.734 84.1028C165.135 84.1028 164.625 84.2915 164.202 84.67C163.78 85.0484 163.568 85.5081 163.568 86.0468C163.568 86.6568 163.782 87.1347 164.209 87.4828C164.637 87.8306 165.135 88.0047 165.705 88.0047C166.285 88.0047 166.79 87.8331 167.223 87.489C167.655 87.1459 167.87 86.6656 167.87 86.0472C167.87 85.5081 167.664 85.0487 167.251 84.6703C166.837 84.2915 166.332 84.1028 165.734 84.1028Z" fill="white"/>
<path d="M171.385 71.5721C170.864 70.7796 170.117 70.1442 169.165 69.6859C168.219 69.2297 167.117 69 165.888 69C164.566 69 163.389 69.2763 162.391 69.8221C161.392 70.3677 160.622 71.0681 160.099 71.9057C159.572 72.7459 159.307 73.5906 159.307 74.4169C159.307 74.8591 159.49 75.2708 159.851 75.6409C160.213 76.0131 160.664 76.2019 161.191 76.2019C162.087 76.2019 162.701 75.6736 163.013 74.6404C163.297 73.7835 163.647 73.1315 164.052 72.699C164.433 72.2918 165.051 72.0858 165.888 72.0858C166.611 72.0858 167.18 72.2883 167.632 72.705C168.077 73.1169 168.294 73.6084 168.294 74.2062C168.296 74.4956 168.223 74.7808 168.082 75.0334C167.932 75.3031 167.745 75.5506 167.526 75.7688C167.295 76.0003 166.913 76.3497 166.391 76.8056C165.784 77.3383 165.293 77.8064 164.935 78.1925C164.556 78.606 164.252 79.082 164.035 79.5993C163.81 80.1348 163.695 80.7723 163.695 81.495C163.695 82.1127 163.867 82.5908 164.208 82.9167C164.545 83.2402 164.964 83.4043 165.455 83.4043C166.394 83.4043 166.984 82.8912 167.159 81.9313C167.25 81.5321 167.316 81.2531 167.361 81.0937C167.402 80.9495 167.461 80.8017 167.536 80.6539C167.61 80.5108 167.726 80.3479 167.882 80.1686C168.045 79.9813 168.266 79.7602 168.537 79.5136C169.549 78.6095 170.262 77.9545 170.658 77.5669C171.066 77.1665 171.423 76.6871 171.718 76.1404C172.019 75.5795 172.173 74.9209 172.173 74.1821C172.172 73.246 171.907 72.3687 171.383 71.573" fill="white"/>
</g>
<g clip-path="url(#clip2)">
<path d="M29.7337 84.1028C29.1346 84.1028 28.6249 84.2915 28.2024 84.67C27.7796 85.0484 27.5684 85.5081 27.5684 86.0468C27.5684 86.6568 27.7821 87.1347 28.209 87.4828C28.6374 87.8306 29.1346 88.0047 29.7049 88.0047C30.2849 88.0047 30.7902 87.8331 31.2227 87.489C31.6552 87.1459 31.8702 86.6656 31.8702 86.0472C31.8702 85.5081 31.664 85.0487 31.2512 84.6703C30.8374 84.2915 30.3321 84.1028 29.7337 84.1028Z" fill="white"/>
<path d="M35.3848 71.5721C34.8637 70.7796 34.1172 70.1442 33.1648 69.6859C32.2192 69.2297 31.1174 69 29.8881 69C28.5655 69 27.3887 69.2763 26.3915 69.8221C25.3922 70.3677 24.622 71.0681 24.099 71.9057C23.5725 72.7459 23.3071 73.5906 23.3071 74.4169C23.3071 74.8591 23.49 75.2708 23.8506 75.6409C24.213 76.0131 24.6641 76.2019 25.1906 76.2019C26.087 76.2019 26.7013 75.6736 27.0133 74.6404C27.2973 73.7835 27.6472 73.1315 28.0521 72.699C28.4332 72.2918 29.0511 72.0858 29.8884 72.0858C30.6105 72.0858 31.1801 72.2883 31.6321 72.705C32.0773 73.1169 32.2937 73.6084 32.2937 74.2062C32.2964 74.4956 32.2234 74.7808 32.082 75.0334C31.9318 75.3031 31.7448 75.5506 31.5264 75.7688C31.2949 76.0003 30.9132 76.3497 30.3915 76.8056C29.7836 77.3383 29.293 77.8064 28.9348 78.1925C28.556 78.606 28.2517 79.082 28.0355 79.5993C27.8096 80.1348 27.6953 80.7723 27.6953 81.495C27.6953 82.1127 27.8675 82.5908 28.2079 82.9167C28.5448 83.2402 28.9642 83.4043 29.4554 83.4043C30.3944 83.4043 30.9842 82.8912 31.1593 81.9313C31.2501 81.5321 31.3163 81.2531 31.3611 81.0937C31.4018 80.9495 31.4605 80.8017 31.5362 80.6539C31.6095 80.5108 31.7259 80.3479 31.8817 80.1686C32.0446 79.9813 32.2664 79.7602 32.5367 79.5136C33.5485 78.6095 34.262 77.9545 34.658 77.5669C35.0664 77.1665 35.4225 76.6871 35.7179 76.1404C36.0194 75.5795 36.1728 74.9209 36.1728 74.1821C36.1723 73.246 35.9069 72.3687 35.3831 71.573" fill="white"/>
</g>
<g clip-path="url(#clip3)">
<path d="M47.7337 42.1028C47.1346 42.1028 46.6249 42.2915 46.2024 42.67C45.7796 43.0484 45.5684 43.5081 45.5684 44.0468C45.5684 44.6568 45.7821 45.1347 46.209 45.4828C46.6374 45.8306 47.1346 46.0047 47.7049 46.0047C48.2849 46.0047 48.7902 45.8331 49.2227 45.489C49.6552 45.1459 49.8702 44.6656 49.8702 44.0472C49.8702 43.5081 49.664 43.0487 49.2512 42.6703C48.8374 42.2915 48.3321 42.1028 47.7337 42.1028Z" fill="white"/>
<path d="M53.3848 29.5721C52.8637 28.7796 52.1172 28.1442 51.1648 27.6859C50.2192 27.2297 49.1174 27 47.8881 27C46.5655 27 45.3887 27.2763 44.3915 27.8221C43.3922 28.3677 42.622 29.0681 42.099 29.9057C41.5725 30.7459 41.3071 31.5906 41.3071 32.4169C41.3071 32.8591 41.49 33.2708 41.8506 33.6409C42.213 34.0131 42.6641 34.2019 43.1906 34.2019C44.087 34.2019 44.7013 33.6736 45.0133 32.6404C45.2973 31.7835 45.6472 31.1315 46.0521 30.699C46.4332 30.2918 47.0511 30.0858 47.8884 30.0858C48.6105 30.0858 49.1801 30.2883 49.6321 30.705C50.0773 31.1169 50.2937 31.6084 50.2937 32.2062C50.2964 32.4956 50.2234 32.7808 50.082 33.0334C49.9318 33.3031 49.7448 33.5506 49.5264 33.7688C49.2949 34.0003 48.9132 34.3497 48.3915 34.8056C47.7836 35.3383 47.293 35.8064 46.9348 36.1925C46.556 36.606 46.2517 37.082 46.0355 37.5993C45.8096 38.1348 45.6953 38.7723 45.6953 39.495C45.6953 40.1127 45.8675 40.5908 46.2079 40.9167C46.5448 41.2402 46.9642 41.4043 47.4554 41.4043C48.3944 41.4043 48.9842 40.8912 49.1593 39.9313C49.2501 39.5321 49.3163 39.2531 49.3611 39.0937C49.4018 38.9495 49.4605 38.8017 49.5362 38.6539C49.6095 38.5108 49.7259 38.3479 49.8817 38.1686C50.0446 37.9813 50.2664 37.7602 50.5367 37.5136C51.5485 36.6095 52.262 35.9545 52.658 35.5669C53.0664 35.1665 53.4225 34.6871 53.7179 34.1404C54.0194 33.5795 54.1728 32.9209 54.1728 32.1821C54.1723 31.246 53.9069 30.3687 53.3831 29.573" fill="white"/>
</g>
<g clip-path="url(#clip4)">
<path d="M147.734 42.1028C147.135 42.1028 146.625 42.2915 146.202 42.67C145.78 43.0484 145.568 43.5081 145.568 44.0468C145.568 44.6568 145.782 45.1347 146.209 45.4828C146.637 45.8306 147.135 46.0047 147.705 46.0047C148.285 46.0047 148.79 45.8331 149.223 45.489C149.655 45.1459 149.87 44.6656 149.87 44.0472C149.87 43.5081 149.664 43.0487 149.251 42.6703C148.837 42.2915 148.332 42.1028 147.734 42.1028Z" fill="white"/>
<path d="M153.385 29.5721C152.864 28.7796 152.117 28.1442 151.165 27.6859C150.219 27.2297 149.117 27 147.888 27C146.566 27 145.389 27.2763 144.391 27.8221C143.392 28.3677 142.622 29.0681 142.099 29.9057C141.572 30.7459 141.307 31.5906 141.307 32.4169C141.307 32.8591 141.49 33.2708 141.851 33.6409C142.213 34.0131 142.664 34.2019 143.191 34.2019C144.087 34.2019 144.701 33.6736 145.013 32.6404C145.297 31.7835 145.647 31.1315 146.052 30.699C146.433 30.2918 147.051 30.0858 147.888 30.0858C148.611 30.0858 149.18 30.2883 149.632 30.705C150.077 31.1169 150.294 31.6084 150.294 32.2062C150.296 32.4956 150.223 32.7808 150.082 33.0334C149.932 33.3031 149.745 33.5506 149.526 33.7688C149.295 34.0003 148.913 34.3497 148.391 34.8056C147.784 35.3383 147.293 35.8064 146.935 36.1925C146.556 36.606 146.252 37.082 146.035 37.5993C145.81 38.1348 145.695 38.7723 145.695 39.495C145.695 40.1127 145.867 40.5908 146.208 40.9167C146.545 41.2402 146.964 41.4043 147.455 41.4043C148.394 41.4043 148.984 40.8912 149.159 39.9313C149.25 39.5321 149.316 39.2531 149.361 39.0937C149.402 38.9495 149.461 38.8017 149.536 38.6539C149.61 38.5108 149.726 38.3479 149.882 38.1686C150.045 37.9813 150.266 37.7602 150.537 37.5136C151.549 36.6095 152.262 35.9545 152.658 35.5669C153.066 35.1665 153.423 34.6871 153.718 34.1404C154.019 33.5795 154.173 32.9209 154.173 32.1821C154.172 31.246 153.907 30.3687 153.383 29.573" fill="white"/>
</g>
<path d="M59.3529 94.2586C59.3529 94.2586 58.7193 88.1147 59.3529 86.1934C59.9865 84.2723 61.1212 82.5331 61.2833 81.915C61.4454 81.297 59.8908 78.0279 62.5137 73.7312C65.1366 69.4347 66.8385 70.3432 67.5605 69.4347C68.2825 68.5262 68.2457 65.4582 71.5021 62.5317C74.7586 59.6052 77.7425 59.8807 77.7425 59.8807C77.7425 59.8807 79.1939 56.0383 82.7156 54.5788C86.2373 53.1193 89.7885 54.0203 89.7885 54.0203C89.7885 54.0203 92.9567 51.0938 97.392 51.0045C101.827 50.9151 103.094 52.1959 104.089 52.2853C105.084 52.3746 107.434 51.1906 111.597 52.7395C115.759 54.2958 115.818 56.6564 116.754 57.0362C117.69 57.4159 120.195 56.6713 123.996 59.7765C127.798 62.8817 127.172 64.3114 127.71 64.8997C128.24 65.488 131.813 65.5103 133.773 70.5665C135.217 74.2897 134.444 77.0226 134.591 77.4248C134.738 77.8268 136.787 79.9789 137.671 82.1831C139.513 89.1262 138.788 94.2586 138.788 94.2586C138.788 94.2586 136.864 96.3305 132.259 99.391C127.389 102.63 72.7841 96.9273 69.1593 95.7582C62.8968 93.7549 59.3529 94.2586 59.3529 94.2586Z" fill="white"/>
<path d="M65.0848 83.1958C65.0848 83.1958 64.6796 78.594 65.9026 76.0621C67.6193 72.4952 70.9716 72.1303 70.9716 72.1303C70.9716 72.1303 71.3473 68.0645 74.228 65.8231C77.7571 63.0828 79.1127 63.8126 80.2915 62.7105C81.4703 61.6158 82.1924 59.6946 85.0878 58.4138C87.9833 57.133 90.3335 57.9596 91.3282 57.4979C92.3229 57.0362 93.9142 55.1597 97.0824 54.9438C101.157 54.6682 101.422 56.2618 103.757 56.515C105.415 56.6937 106.653 55.7033 110.182 56.7979C113.711 57.8926 113.829 60.0521 114.949 60.7893C116.069 61.5265 118.831 60.8489 121.823 63.1647C124.534 65.2646 124.505 67.2082 125.263 68.0124C126.015 68.8166 128.247 69.107 129.876 73.4111C131.231 76.9929 130.229 78.0504 130.598 79.1748C130.966 80.2992 132.985 81.4757 134.215 84.8416C135.755 89.0489 135.298 91.2455 135.298 91.2455C135.298 91.2455 127.879 101.231 94.9457 100.844C71.2368 100.569 62.7346 92.2509 62.7346 92.2509C62.7346 92.2509 62.3735 87.7681 63.2798 86.033C64.186 84.298 65.0848 83.1958 65.0848 83.1958Z" fill="white"/>
<path d="M96.5446 98.3863C97.2739 100.047 100.147 100.322 102.564 97.5896C104.73 95.1322 103.463 91.3493 101.142 91.6695C99.0274 91.9599 99.72 94.179 98.7106 95.0279C97.7013 95.8768 95.911 96.9417 96.5446 98.3863Z" fill="#F8F8F8"/>
<path d="M107.838 88.2518C108.465 89.6071 112.222 89.3167 113.644 86.8146C115.066 84.3051 114.86 80.6415 112.797 80.6787C110.108 80.7307 111.11 83.5083 110.159 84.3572C109.209 85.2061 106.785 85.9583 107.838 88.2518Z" fill="#F8F8F8"/>
<path d="M122.352 74.4314C120.805 74.9377 121.616 76.9931 120.982 78.3781C120.348 79.7631 118.661 81.312 119.98 82.4885C121.299 83.6651 124.305 81.744 124.732 78.8101C125.145 75.876 123.988 73.9027 122.352 74.4314Z" fill="#F8F8F8"/>
<path d="M115.825 92.9882C114.838 94.5891 112.974 93.7849 112.606 95.4456C112.237 97.0987 116.039 97.6869 118.146 95.7137C120.26 93.7402 119.678 90.3818 118.36 90.1137C117.041 89.8382 116.613 91.7074 115.825 92.9882Z" fill="#F8F8F8"/>
<path d="M109.872 74.7139C110.742 75.6969 114.227 74.6544 115.383 71.147C116.54 67.6397 114.256 65.376 112.716 66.1728C111.177 66.9695 112.274 68.66 111.906 69.7546C111.538 70.8491 108.171 72.7928 109.872 74.7139Z" fill="#F8F8F8"/>
<g style="mix-blend-mode:multiply">
<path fill-rule="evenodd" clip-rule="evenodd" d="M88.25 101.324C90.5875 101.544 93.1165 101.683 95.8473 101.714C102.393 101.791 107.93 101.459 112.602 100.876C122.843 101.434 131.368 101.453 133.16 100.261C137.765 97.2004 139.689 95.1284 139.689 95.1284C139.689 95.1284 140.414 89.996 138.572 83.0529C137.961 81.529 136.793 80.0299 136.082 79.1169V79.1167L136.081 79.1166L136.081 79.1164L136.081 79.1163C135.764 78.7091 135.538 78.4186 135.492 78.2946C135.456 78.1969 135.475 77.9616 135.503 77.6079C135.59 76.5058 135.768 74.2549 134.674 71.4363C133.168 67.5492 130.707 66.6373 129.409 66.156C129.019 66.0113 128.734 65.9056 128.611 65.7695C128.47 65.6151 128.409 65.4026 128.327 65.117C128.097 64.3149 127.701 62.9362 124.898 60.6463C122.042 58.3137 119.918 58.1536 118.641 58.0573C118.218 58.0254 117.888 58.0005 117.655 57.906C117.357 57.785 117.148 57.463 116.867 57.03V57.0299C116.265 56.1038 115.334 54.6698 112.498 53.6094C109.391 52.4535 107.294 52.8196 106.017 53.0427C105.582 53.1185 105.243 53.1778 104.99 53.1551C104.702 53.1293 104.391 53.0034 103.987 52.8399C102.996 52.4388 101.444 51.8109 98.2933 51.8743C95.8923 51.9227 93.8629 52.8023 92.5061 53.5992C92.5153 53.6026 92.5245 53.606 92.5336 53.6094C95.3702 54.6698 96.3011 56.1038 96.9025 57.0299V57.03C97.1837 57.463 97.3929 57.785 97.691 57.906C97.9238 58.0005 98.2538 58.0254 98.6766 58.0573C99.9535 58.1536 102.078 58.3137 104.933 60.6463C107.737 62.9362 108.132 64.3149 108.362 65.117V65.117C108.444 65.4026 108.505 65.6151 108.647 65.7695C108.769 65.9056 109.055 66.0113 109.445 66.156C110.743 66.6373 113.204 67.5492 114.71 71.4363C115.803 74.2549 115.626 76.5058 115.539 77.6079C115.511 77.9616 115.492 78.1969 115.528 78.2946C115.573 78.4186 115.8 78.7091 116.117 79.1163L116.117 79.1164L116.117 79.1166L116.117 79.1167V79.1169C116.828 80.0299 117.996 81.529 118.608 83.0529C120.45 89.996 119.725 95.1284 119.725 95.1284C119.725 95.1284 117.801 97.2004 113.196 100.261C111.404 101.453 102.879 101.434 92.638 100.876C91.2526 101.049 89.7912 101.199 88.25 101.324Z" fill="#F8F8F8"/>
</g>
<g style="mix-blend-mode:multiply">
<path fill-rule="evenodd" clip-rule="evenodd" d="M93.8103 79.3039C94.0863 78.9786 94.571 78.9409 94.893 79.2198C95.3378 79.605 97.0665 80.5851 99.7683 80.5851C102.493 80.5851 103.915 79.8507 104.644 79.2198C104.966 78.9409 105.45 78.9786 105.726 79.3039C106.002 79.6294 105.965 80.1193 105.643 80.3982C104.58 81.3194 102.777 82.1372 99.7683 82.1372C96.7368 82.1372 94.6433 81.0478 93.8936 80.3982C93.5717 80.1193 93.5344 79.6294 93.8103 79.3039Z" fill="black"/>
</g>
<g style="mix-blend-mode:multiply">
<path d="M89.7861 75.1525C89.7861 74.2952 90.4737 73.6003 91.3218 73.6003C92.17 73.6003 92.8576 74.2952 92.8576 75.1525C92.8576 76.0098 92.17 76.7047 91.3218 76.7047C90.4737 76.7047 89.7861 76.0098 89.7861 75.1525Z" fill="black"/>
</g>
<g style="mix-blend-mode:multiply">
<path d="M106.679 75.1525C106.679 74.2952 107.366 73.6003 108.214 73.6003C109.063 73.6003 109.75 74.2952 109.75 75.1525C109.75 76.0098 109.063 76.7047 108.214 76.7047C107.366 76.7047 106.679 76.0098 106.679 75.1525Z" fill="black"/>
</g>
<path d="M56 98.1133C56 94.886 58.5885 92.2266 61.7815 92.2266H136.218C139.412 92.2266 142 94.886 142 98.1133C142 122.116 122.748 141.896 99 141.896C75.2517 141.896 56 122.116 56 98.1133Z" fill="#F4F0EA"/>
<path d="M75.6949 112.067C76.0544 112.145 76.0544 112.664 75.6949 112.742C72.15 113.511 69.3809 116.31 68.6197 119.893C68.5425 120.256 68.0295 120.256 67.9523 119.893C67.1911 116.31 64.422 113.511 60.8771 112.742C60.5175 112.664 60.5175 112.145 60.8771 112.067C64.422 111.298 67.1911 108.499 67.9523 104.916C68.0295 104.553 68.5425 104.553 68.6197 104.916C69.3809 108.499 72.15 111.298 75.6949 112.067Z" fill="#FFA012"/>
<path d="M91.0523 112.067C91.4118 112.145 91.4118 112.664 91.0523 112.742C87.5074 113.511 84.7383 116.31 83.9771 119.893C83.8998 120.256 83.3869 120.256 83.3097 119.893C82.5484 116.31 79.7794 113.511 76.2345 112.742C75.875 112.664 75.875 112.145 76.2345 112.067C79.7794 111.298 82.5484 108.499 83.3097 104.916C83.3869 104.553 83.8998 104.553 83.9771 104.916C84.7383 108.499 87.5074 111.298 91.0523 112.067Z" fill="#FFA012"/>
<path d="M106.409 112.067C106.768 112.145 106.768 112.664 106.409 112.742C102.864 113.511 100.095 116.31 99.3335 119.893C99.2563 120.256 98.7434 120.256 98.6661 119.893C97.9049 116.31 95.1358 113.511 91.5909 112.742C91.2314 112.664 91.2314 112.145 91.5909 112.067C95.1358 111.298 97.9049 108.499 98.6661 104.916C98.7434 104.553 99.2563 104.553 99.3335 104.916C100.095 108.499 102.864 111.298 106.409 112.067Z" fill="#FFA012"/>
<path d="M121.766 112.067C122.126 112.145 122.126 112.664 121.766 112.742C118.221 113.511 115.452 116.31 114.691 119.893C114.614 120.256 114.101 120.256 114.024 119.893C113.262 116.31 110.493 113.511 106.948 112.742C106.589 112.664 106.589 112.145 106.948 112.067C110.493 111.298 113.262 108.499 114.024 104.916C114.101 104.553 114.614 104.553 114.691 104.916C115.452 108.499 118.221 111.298 121.766 112.067Z" fill="#FFA012"/>
<path d="M137.123 112.067C137.483 112.145 137.483 112.664 137.123 112.742C133.578 113.511 130.809 116.31 130.048 119.893C129.971 120.256 129.458 120.256 129.38 119.893C128.619 116.31 125.85 113.511 122.305 112.742C121.946 112.664 121.946 112.145 122.305 112.067C125.85 111.298 128.619 108.499 129.38 104.916C129.458 104.553 129.971 104.553 130.048 104.916C130.809 108.499 133.578 111.298 137.123 112.067Z" fill="#FFA012"/>
<g style="mix-blend-mode:multiply">
<path fill-rule="evenodd" clip-rule="evenodd" d="M88.25 144.774H115.893C117.589 144.774 118.964 143.384 118.964 141.669V136.64C132.659 129.276 142 114.606 142 97.8867C142 94.6595 139.412 92 136.218 92H108.576C111.769 92 114.357 94.6595 114.357 97.8867C114.357 114.606 105.016 129.276 91.3214 136.64V141.669C91.3214 143.384 89.9464 144.774 88.25 144.774Z" fill="#F4F0EA"/>
</g>
<path d="M137.925 72.8385C137.238 75.4281 134.606 77.0137 132.058 76.3373L72.6616 60.5695C70.1137 59.8932 68.6147 57.2109 69.3022 54.6214C74.415 35.3617 93.9901 23.5684 112.94 28.5989C131.89 33.6295 143.038 53.5788 137.925 72.8385Z" fill="#F4F0EA"/>
<path d="M127.217 39.0554L95.356 30.5975L97.0092 24.3702C97.3744 22.9945 98.7677 22.1706 100.121 22.5299L127.08 29.6866C128.434 30.046 129.235 31.4524 128.87 32.8282L127.217 39.0554Z" fill="#F4F0EA"/>
<g style="mix-blend-mode:multiply">
<path fill-rule="evenodd" clip-rule="evenodd" d="M104.675 22.7042L127.541 28.7741C128.944 29.1466 129.777 30.594 129.402 32.007L128.302 36.1518C138.019 45.2279 141.981 59.5082 137.906 72.9112C137.2 75.571 135.448 77.432 132.807 76.7309L109.942 70.6609C112.583 71.3621 115.306 69.7387 116.012 67.0789C119.67 53.2996 115.153 39.158 105.437 30.0819L106.537 25.9371C106.912 24.5241 106.079 23.0767 104.675 22.7042Z" fill="#F4F0EA"/>
</g>
</g>
<defs>
<clipPath id="clip0">
<rect width="196" height="120" fill="white"/>
</clipPath>
<clipPath id="clip1">
<rect width="20" height="20" fill="white" transform="translate(156 68)"/>
</clipPath>
<clipPath id="clip2">
<rect width="20" height="20" fill="white" transform="translate(20 68)"/>
</clipPath>
<clipPath id="clip3">
<rect width="20" height="20" fill="white" transform="translate(38 26)"/>
</clipPath>
<clipPath id="clip4">
<rect width="20" height="20" fill="white" transform="translate(138 26)"/>
</clipPath>
</defs>
</svg>
