<svg width="320" height="116" viewBox="0 0 320 116" fill="none" xmlns="http://www.w3.org/2000/svg">
<rect width="320" height="116" rx="10" fill="#FFA012"/>
<path d="M111.396 62.86C109.618 62.86 108.792 62.622 108.792 62.09C108.792 61.558 109.618 61.334 111.396 61.334C113.188 61.334 114.014 61.558 114.014 62.09C114.014 62.622 113.188 62.86 111.396 62.86ZM111.396 59.976C108.568 59.976 106.93 60.704 106.93 62.09C106.93 63.462 108.568 64.204 111.396 64.204C114.238 64.204 115.876 63.462 115.876 62.09C115.876 60.704 114.238 59.976 111.396 59.976ZM112.334 57.96V57.162H116.016V55.762H108.876V55.062H115.624V53.718H108.876V53.046H115.918V51.646H107.042V57.162H110.486V57.96H105.586V59.402H117.248V57.96H112.334ZM125.171 54.712H123.925C123.995 54.11 124.037 53.494 124.037 52.836H119.025V54.306H122.203C121.965 56.826 120.845 58.688 118.297 60.242L119.347 61.53C121.755 60.102 123.043 58.31 123.617 56.182H125.171V57.932H123.379V59.416H125.171V63.644H126.893V51.59H125.171V54.712ZM127.817 51.296V64.204H129.567V51.296H127.817ZM145.134 54.166H138.134V53.032H145.036V51.562H136.3V55.622H145.134V54.166ZM138.022 61.908H145.078V58.492H136.174V59.878H143.258V60.606H136.188V64.092H145.414V62.678H138.022V61.908ZM134.858 56.308V57.764H146.52V56.308H134.858ZM151.251 59.738C150.313 59.738 149.683 58.716 149.683 56.798C149.683 54.894 150.313 53.872 151.251 53.872C152.203 53.872 152.833 54.894 152.833 56.798C152.833 58.716 152.203 59.738 151.251 59.738ZM156.697 51.296V55.944H154.541C154.289 53.62 152.987 52.206 151.251 52.206C149.333 52.206 147.919 53.97 147.919 56.798C147.919 59.64 149.333 61.418 151.251 61.418C153.043 61.418 154.359 59.906 154.555 57.442H156.697V64.232H158.545V51.296H156.697ZM161.19 52.626V54.124H165.404C165.068 56.98 163.472 59.024 160.476 60.564L161.512 61.978C165.796 59.808 167.266 56.49 167.266 52.626H161.19ZM172.502 56.224H170.696V51.296H168.848V64.176H170.696V57.75H172.502V56.224ZM183.869 54.796H176.771V51.772H174.923V56.266H183.869V54.796ZM176.659 60.088H174.797V63.924H183.939V62.454H176.659V60.088ZM173.481 57.582V59.066H185.157V57.582H173.481ZM198.316 56.042H193.01V54.712H198.316V56.042ZM200.136 51.8H198.316V53.27H193.01V51.8H191.176V57.512H200.136V51.8ZM201.522 58.73H189.846V60.2H194.718V64.218H196.566V60.2H201.522V58.73ZM211.069 55.58H206.043V54.418H211.069V55.58ZM212.903 51.716H211.069V53.032H206.043V51.716H204.209V57.022H212.903V51.716ZM205.917 60.438H204.069V63.98H213.113V62.51H205.917V60.438ZM202.711 57.918V59.374H207.793V61.404H209.641V59.374H214.401V57.918H202.711Z" fill="#F7F7F7"/>
</svg>
