<svg width="240" height="120" viewBox="0 0 240 120" fill="none" xmlns="http://www.w3.org/2000/svg">
<g clip-path="url(#clip0)">
<path d="M0 10C0 4.47715 4.47715 0 10 0H230C235.523 0 240 4.47715 240 10V110C240 115.523 235.523 120 230 120H10C4.47716 120 0 115.523 0 110V10Z" fill="#FFDD66"/>
<path d="M194.167 18.8862C195.368 17.4008 197.632 17.4008 198.833 18.8862L203.501 24.6602C204.247 25.5831 205.467 25.9794 206.613 25.6713L213.782 23.7435C215.627 23.2476 217.459 24.5787 217.557 26.4862L217.94 33.9009C218.001 35.0861 218.755 36.1238 219.863 36.5481L226.797 39.2029C228.58 39.8859 229.28 42.0397 228.239 43.6406L224.189 49.8639C223.542 50.8586 223.542 52.1414 224.189 53.1361L228.239 59.3594C229.28 60.9603 228.58 63.1142 226.797 63.7971L219.863 66.4519C218.755 66.8762 218.001 67.9139 217.94 69.0991L217.557 76.5138C217.459 78.4213 215.627 79.7524 213.782 79.2565L206.613 77.3287C205.467 77.0206 204.247 77.4169 203.501 78.3398L198.833 84.1138C197.632 85.5992 195.368 85.5992 194.167 84.1138L189.499 78.3398C188.753 77.4169 187.533 77.0206 186.387 77.3287L179.218 79.2565C177.373 79.7524 175.541 78.4213 175.443 76.5138L175.06 69.0991C174.999 67.9139 174.245 66.8762 173.137 66.4519L166.203 63.7971C164.42 63.1141 163.72 60.9603 164.761 59.3594L168.811 53.1361C169.458 52.1414 169.458 50.8586 168.811 49.8639L164.761 43.6406C163.72 42.0397 164.42 39.8859 166.203 39.2029L173.137 36.5481C174.245 36.1238 174.999 35.0861 175.06 33.9009L175.443 26.4862C175.541 24.5787 177.373 23.2476 179.218 23.7435L186.387 25.6713C187.533 25.9794 188.753 25.5831 189.499 24.6602L194.167 18.8862Z" fill="#FFD43E"/>
<path d="M62.1669 15.8862C63.3677 14.4008 65.6323 14.4008 66.8331 15.8862L74.5134 25.3874C75.2595 26.3103 76.4794 26.7066 77.6254 26.3985L89.4236 23.2263C91.2682 22.7304 93.1003 24.0615 93.1986 25.969L93.8275 38.17C93.8886 39.3552 94.6426 40.3929 95.7508 40.8172L107.16 45.1857C108.944 45.8686 109.644 48.0224 108.602 49.6234L101.939 59.8639C101.292 60.8586 101.292 62.1414 101.939 63.1361L108.602 73.3766C109.644 74.9776 108.944 77.1314 107.16 77.8143L95.7508 82.1828C94.6426 82.6071 93.8886 83.6448 93.8275 84.83L93.1986 97.031C93.1003 98.9385 91.2682 100.27 89.4237 99.7737L77.6254 96.6015C76.4794 96.2934 75.2595 96.6897 74.5134 97.6126L66.8331 107.114C65.6323 108.599 63.3677 108.599 62.1669 107.114L54.4866 97.6126C53.7405 96.6897 52.5206 96.2934 51.3746 96.6015L39.5764 99.7737C37.7318 100.27 35.8997 98.9385 35.8014 97.031L35.1725 84.83C35.1114 83.6449 34.3574 82.6071 33.2492 82.1828L21.8396 77.8143C20.0559 77.1314 19.3561 74.9776 20.3977 73.3766L27.0605 63.1361C27.7077 62.1414 27.7077 60.8586 27.0605 59.8639L20.3977 49.6234C19.3561 48.0224 20.0559 45.8686 21.8396 45.1857L33.2491 40.8172C34.3574 40.3929 35.1114 39.3552 35.1725 38.17L35.8014 25.969C35.8997 24.0615 37.7318 22.7304 39.5764 23.2263L51.3746 26.3985C52.5206 26.7066 53.7405 26.3103 54.4866 25.3874L62.1669 15.8862Z" fill="#FFD43E"/>
<g filter="url(#filter0_d)">
<path d="M92.7504 82.5468C92.7504 82.5468 91.8529 74.5004 92.7505 71.9842C93.648 69.4682 95.2554 67.1905 95.485 66.381C95.7146 65.5716 93.5125 61.2903 97.228 55.6632C100.943 50.0362 103.354 51.226 104.377 50.0362C105.4 48.8464 105.348 44.8284 109.961 40.9957C114.574 37.1631 118.801 37.5239 118.801 37.5239C118.801 37.5239 120.857 32.4917 125.845 30.5803C130.834 28.6688 135.864 29.8488 135.864 29.8488C135.864 29.8488 140.352 26.0162 146.635 25.8992C152.918 25.7821 154.713 27.4595 156.122 27.5766C157.531 27.6936 160.86 26.143 166.757 28.1714C172.654 30.2097 172.737 33.3012 174.063 33.7985C175.388 34.2959 178.937 33.3207 184.322 37.3874C189.707 41.4541 188.82 43.3265 189.582 44.097C190.334 44.8674 195.395 44.8966 198.172 51.5185C200.217 56.3946 199.121 59.9737 199.33 60.5004C199.539 61.0269 202.44 63.8453 203.693 66.7321C206.303 75.8252 205.275 82.5468 205.275 82.5468C205.275 82.5468 202.549 85.2601 196.026 89.2684C189.128 93.5106 111.777 86.0417 106.642 84.5106C97.7706 81.8871 92.7504 82.5468 92.7504 82.5468Z" fill="white"/>
</g>
<path d="M100.869 68.0586C100.869 68.0586 100.295 62.0318 102.028 58.7159C104.46 54.0445 109.208 53.5666 109.208 53.5666C109.208 53.5666 109.741 48.242 113.821 45.3065C118.82 41.7176 120.741 42.6734 122.411 41.23C124.08 39.7964 125.103 37.2803 129.205 35.6029C133.306 33.9255 136.636 35.008 138.045 34.4034C139.454 33.7988 141.708 31.3412 146.196 31.0584C151.967 30.6975 152.343 32.7845 155.651 33.1161C158 33.3502 159.753 32.0531 164.752 33.4867C169.751 34.9203 169.918 37.7484 171.505 38.7139C173.091 39.6794 177.005 38.792 181.242 41.8249C185.083 44.5751 185.041 47.1205 186.116 48.1737C187.181 49.2268 190.343 49.6072 192.65 55.2441C194.57 59.935 193.151 61.3199 193.672 62.7924C194.194 64.265 197.054 65.8058 198.797 70.2139C200.978 75.724 200.331 78.6008 200.331 78.6008C200.331 78.6008 189.821 91.6787 143.169 91.1716C109.584 90.8107 97.54 79.9174 97.54 79.9174C97.54 79.9174 97.0286 74.0466 98.3123 71.7743C99.596 69.5021 100.869 68.0586 100.869 68.0586Z" fill="white"/>
<path d="M145.434 87.953C146.467 90.1277 150.537 90.4885 153.96 86.9096C157.029 83.6913 155.234 78.737 151.946 79.1563C148.951 79.5367 149.932 82.4429 148.502 83.5547C147.072 84.6664 144.536 86.0611 145.434 87.953Z" fill="#F8F8F8"/>
<path d="M161.433 74.6801C162.32 76.4551 167.643 76.0748 169.657 72.7979C171.671 69.5113 171.379 64.7133 168.457 64.7621C164.648 64.8302 166.067 68.4679 164.721 69.5796C163.374 70.6913 159.941 71.6764 161.433 74.6801Z" fill="#F8F8F8"/>
<path d="M181.991 56.5795C179.8 57.2426 180.948 59.9344 180.05 61.7483C179.153 63.5621 176.762 65.5906 178.631 67.1315C180.499 68.6724 184.757 66.1564 185.362 62.314C185.947 58.4714 184.308 55.8871 181.991 56.5795Z" fill="#F8F8F8"/>
<path d="M172.747 80.8833C171.348 82.9799 168.707 81.9267 168.186 84.1016C167.664 86.2665 173.049 87.037 176.034 84.4527C179.029 81.8682 178.205 77.4698 176.337 77.1188C174.469 76.758 173.863 79.2058 172.747 80.8833Z" fill="#F8F8F8"/>
<path d="M164.313 56.9508C165.544 58.2382 170.481 56.873 172.12 52.2795C173.758 47.6862 170.523 44.7215 168.342 45.765C166.16 46.8084 167.715 49.0223 167.193 50.4559C166.672 51.8894 161.902 54.4348 164.313 56.9508Z" fill="#F8F8F8"/>
<g style="mix-blend-mode:multiply">
<g style="mix-blend-mode:multiply">
<path fill-rule="evenodd" clip-rule="evenodd" d="M133.684 91.8008C136.995 92.0891 140.577 92.2702 144.446 92.3119C153.718 92.4127 161.562 91.9769 168.18 91.2138C182.687 91.9446 194.763 91.9692 197.302 90.4082C203.825 86.4001 206.55 83.6866 206.55 83.6866C206.55 83.6866 207.578 76.965 204.968 67.8719C204.102 65.8761 202.447 63.9128 201.44 62.7171V62.7169L201.44 62.7167L201.44 62.7165L201.439 62.7163C200.99 62.1831 200.67 61.8026 200.605 61.6402C200.555 61.5123 200.581 61.2041 200.62 60.7409C200.744 59.2976 200.995 56.3496 199.447 52.6583C197.313 47.5676 193.827 46.3733 191.988 45.743C191.435 45.5535 191.031 45.4151 190.857 45.2368C190.657 45.0346 190.571 44.7563 190.455 44.3822C190.129 43.3318 189.569 41.5262 185.597 38.5273C181.552 35.4724 178.543 35.2626 176.734 35.1365C176.135 35.0948 175.668 35.0622 175.338 34.9384C174.916 34.78 174.619 34.3582 174.221 33.7911V33.7911C173.369 32.5781 172.05 30.7002 168.032 29.3113C163.632 27.7975 160.661 28.277 158.851 28.5692C158.236 28.6685 157.755 28.7461 157.397 28.7164C156.989 28.6826 156.549 28.5178 155.976 28.3036C154.572 27.7784 152.374 26.9559 147.911 27.0391C144.509 27.1024 141.635 28.2544 139.713 29.298C139.726 29.3024 139.739 29.3069 139.752 29.3113C143.77 30.7002 145.089 32.5781 145.94 33.7911V33.7911C146.339 34.3582 146.635 34.78 147.057 34.9384C147.387 35.0622 147.855 35.0948 148.454 35.1365C150.262 35.2626 153.271 35.4724 157.317 38.5273C161.288 41.5262 161.848 43.3318 162.174 44.3822V44.3823C162.29 44.7563 162.377 45.0346 162.577 45.2368C162.75 45.4151 163.155 45.5535 163.708 45.743C165.547 46.3733 169.032 47.5676 171.166 52.6583C172.715 56.3496 172.463 59.2976 172.34 60.7409C172.3 61.2041 172.274 61.5123 172.325 61.6402C172.389 61.8026 172.709 62.1831 173.159 62.7163L173.159 62.7165L173.159 62.7167L173.159 62.7169V62.7171C174.167 63.9128 175.821 65.8761 176.687 67.8719C179.297 76.965 178.269 83.6866 178.269 83.6866C178.269 83.6866 175.544 86.4001 169.021 90.4082C166.483 91.9692 154.407 91.9446 139.899 91.2138C137.937 91.44 135.867 91.6374 133.684 91.8008Z" fill="#F8F8F8"/>
</g>
</g>
<g style="mix-blend-mode:multiply">
<g style="mix-blend-mode:multiply">
<path d="M135.859 57.5245C135.859 56.4018 136.833 55.4917 138.035 55.4917C139.236 55.4917 140.21 56.4018 140.21 57.5245C140.21 58.6472 139.236 59.5573 138.035 59.5573C136.833 59.5573 135.859 58.6472 135.859 57.5245Z" fill="black"/>
</g>
</g>
<g style="mix-blend-mode:multiply">
<g style="mix-blend-mode:multiply">
<path d="M159.789 57.5245C159.789 56.4018 160.763 55.4917 161.965 55.4917C163.166 55.4917 164.14 56.4018 164.14 57.5245C164.14 58.6472 163.166 59.5573 161.965 59.5573C160.763 59.5573 159.789 58.6472 159.789 57.5245Z" fill="black"/>
</g>
</g>
<g filter="url(#filter1_d)">
<path fill-rule="evenodd" clip-rule="evenodd" d="M96.1899 79.8857C91.6667 79.8857 88 83.3687 88 87.5953C88 109.491 101.232 128.704 120.631 138.348V144.935C120.631 147.18 122.579 149 124.982 149H172.841C175.244 149 177.192 147.18 177.192 144.935V138.349C196.592 128.705 209.825 109.492 209.825 87.5953C209.825 83.3687 206.158 79.8857 201.635 79.8857H96.1899Z" fill="#F4F0EA"/>
</g>
<path d="M115.898 105.87C116.407 105.972 116.407 106.651 115.898 106.753C110.876 107.761 106.954 111.426 105.875 116.118C105.766 116.594 105.039 116.594 104.93 116.118C103.852 111.426 99.9289 107.761 94.9074 106.753C94.3981 106.651 94.3981 105.972 94.9074 105.87C99.9289 104.862 103.852 101.197 104.93 96.5044C105.039 96.0285 105.766 96.0285 105.875 96.5044C106.954 101.197 110.876 104.862 115.898 105.87Z" fill="#FFA012"/>
<path d="M137.652 105.87C138.161 105.972 138.161 106.651 137.652 106.753C132.63 107.761 128.708 111.426 127.629 116.118C127.52 116.594 126.793 116.594 126.684 116.118C125.605 111.426 121.683 107.761 116.661 106.753C116.152 106.651 116.152 105.972 116.661 105.87C121.683 104.862 125.605 101.197 126.684 96.5044C126.793 96.0285 127.52 96.0285 127.629 96.5044C128.708 101.197 132.63 104.862 137.652 105.87Z" fill="#FFA012"/>
<path d="M159.407 105.87C159.917 105.972 159.917 106.651 159.407 106.753C154.386 107.761 150.463 111.426 149.385 116.118C149.276 116.594 148.549 116.594 148.44 116.118C147.361 111.426 143.439 107.761 138.417 106.753C137.908 106.651 137.908 105.972 138.417 105.87C143.439 104.862 147.361 101.197 148.44 96.5044C148.549 96.0285 149.276 96.0285 149.385 96.5044C150.463 101.197 154.386 104.862 159.407 105.87Z" fill="#FFA012"/>
<path d="M181.161 105.87C181.671 105.972 181.671 106.651 181.161 106.753C176.14 107.761 172.217 111.426 171.139 116.118C171.029 116.594 170.303 116.594 170.193 116.118C169.115 111.426 165.193 107.761 160.171 106.753C159.662 106.651 159.662 105.972 160.171 105.87C165.193 104.862 169.115 101.197 170.193 96.5044C170.303 96.0285 171.029 96.0285 171.139 96.5044C172.217 101.197 176.14 104.862 181.161 105.87Z" fill="#FFA012"/>
<path d="M202.915 105.87C203.425 105.972 203.425 106.651 202.915 106.753C197.894 107.761 193.971 111.426 192.893 116.118C192.783 116.594 192.057 116.594 191.947 116.118C190.869 111.426 186.946 107.761 181.925 106.753C181.416 106.651 181.416 105.972 181.925 105.87C186.946 104.862 190.869 101.197 191.947 96.5044C192.057 96.0285 192.783 96.0285 192.893 96.5044C193.971 101.197 197.894 104.862 202.915 105.87Z" fill="#FFA012"/>
<g style="mix-blend-mode:multiply">
<g style="mix-blend-mode:multiply">
<path fill-rule="evenodd" clip-rule="evenodd" d="M133.684 149.001H172.841C175.244 149.001 177.192 147.18 177.192 144.935V138.349C196.592 128.705 209.824 109.492 209.824 87.5953C209.824 83.3687 206.157 79.8857 201.634 79.8857H162.476C166.999 79.8857 170.666 83.3687 170.666 87.5953C170.666 109.492 157.434 128.705 138.034 138.349V144.935C138.034 147.18 136.087 149.001 133.684 149.001Z" fill="#F4F0EA"/>
</g>
</g>
<path d="M64.25 43C61.9833 43 60.3667 43.7833 59.4 45.35C58.4667 46.8833 58 48.7833 58 51.05C58 52.75 58.1667 54.65 58.5 56.75C58.8333 58.8167 59.3 60.6833 59.9 62.35C60.2 63.1833 60.7167 63.9167 61.45 64.55C62.1833 65.15 63.1167 65.45 64.25 65.45C65.3833 65.45 66.3 65.15 67 64.55C67.7333 63.9167 68.25 63.1833 68.55 62.35C69.15 60.65 69.6167 58.7333 69.95 56.6C70.2833 54.4333 70.45 52.4667 70.45 50.7C70.45 48.5667 69.95 46.75 68.95 45.25C67.9833 43.75 66.4167 43 64.25 43ZM64.2 77.75C65.6 77.75 66.8167 77.2333 67.85 76.2C68.8833 75.1667 69.4 73.95 69.4 72.55C69.4 71.15 68.8833 69.9333 67.85 68.9C66.8167 67.8667 65.6 67.35 64.2 67.35C62.8 67.35 61.5833 67.8667 60.55 68.9C59.5167 69.9333 59 71.15 59 72.55C59 73.95 59.5167 75.1667 60.55 76.2C61.5833 77.2333 62.8 77.75 64.2 77.75Z" fill="#FFA012"/>
<ellipse cx="150" cy="64.5" rx="4" ry="4.5" fill="#FF7C6A"/>
<path fill-rule="evenodd" clip-rule="evenodd" d="M148 62.5986V60.5015C148.588 60.1826 149.271 60 150 60C150.728 60 151.412 60.1827 152 60.5018V62.5987C151.412 62.8539 150.729 63 150 63C149.271 63 148.588 62.8539 148 62.5986Z" fill="#F4F0EA"/>
</g>
<defs>
<filter id="filter0_d" x="88.3516" y="25.8933" width="121.123" height="72.6627" filterUnits="userSpaceOnUse" color-interpolation-filters="sRGB">
<feFlood flood-opacity="0" result="BackgroundImageFix"/>
<feColorMatrix in="SourceAlpha" type="matrix" values="0 0 0 0 0 0 0 0 0 0 0 0 0 0 0 0 0 0 127 0" result="hardAlpha"/>
<feOffset dy="4"/>
<feGaussianBlur stdDeviation="2"/>
<feComposite in2="hardAlpha" operator="out"/>
<feColorMatrix type="matrix" values="0 0 0 0 0.883333 0 0 0 0 0.358044 0 0 0 0 0.0625694 0 0 0 0.6 0"/>
<feBlend mode="normal" in2="BackgroundImageFix" result="effect1_dropShadow"/>
<feBlend mode="normal" in="SourceGraphic" in2="effect1_dropShadow" result="shape"/>
</filter>
<filter id="filter1_d" x="84" y="79.8857" width="129.825" height="77.1147" filterUnits="userSpaceOnUse" color-interpolation-filters="sRGB">
<feFlood flood-opacity="0" result="BackgroundImageFix"/>
<feColorMatrix in="SourceAlpha" type="matrix" values="0 0 0 0 0 0 0 0 0 0 0 0 0 0 0 0 0 0 127 0" result="hardAlpha"/>
<feOffset dy="4"/>
<feGaussianBlur stdDeviation="2"/>
<feComposite in2="hardAlpha" operator="out"/>
<feColorMatrix type="matrix" values="0 0 0 0 0.883333 0 0 0 0 0.358044 0 0 0 0 0.0625694 0 0 0 0.6 0"/>
<feBlend mode="normal" in2="BackgroundImageFix" result="effect1_dropShadow"/>
<feBlend mode="normal" in="SourceGraphic" in2="effect1_dropShadow" result="shape"/>
</filter>
<clipPath id="clip0">
<rect width="240" height="120" fill="white"/>
</clipPath>
</defs>
</svg>
