<svg width="104" height="112" viewBox="0 0 104 112" fill="none" xmlns="http://www.w3.org/2000/svg">
<g filter="url(#filter0_d)">
<path d="M7.71534 48.265C7.71534 48.265 7.01326 41.5165 7.71539 39.4061C8.4175 37.2959 9.67489 35.3856 9.8545 34.7067C10.0341 34.0278 8.31146 30.4371 11.2179 25.7175C14.1244 20.9981 16.0103 21.996 16.8104 20.9981C17.6105 20.0002 17.5697 16.6303 21.1782 13.4158C24.7867 10.2013 28.0933 10.5039 28.0933 10.5039C28.0933 10.5039 29.7016 6.28338 33.604 4.68023C37.5065 3.07708 41.4416 4.06678 41.4416 4.06678C41.4416 4.06678 44.9524 0.852292 49.8672 0.75414C54.782 0.655988 56.1862 2.06284 57.2884 2.16099C58.3906 2.25914 60.995 0.958625 65.6077 2.65993C70.2205 4.36942 70.2857 6.96228 71.3226 7.37942C72.3595 7.79656 75.1354 6.97863 79.348 10.3894C83.5607 13.8002 82.8668 15.3707 83.4627 16.0168C84.0505 16.663 88.0101 16.6875 90.1819 22.2413C91.7821 26.3309 90.9247 29.3328 91.0881 29.7745C91.2513 30.2161 93.5211 32.58 94.5008 35.0011C96.5424 42.6276 95.7385 48.265 95.7385 48.265C95.7385 48.265 93.6064 50.5408 88.5038 53.9025C83.1072 57.4605 22.5988 51.1963 18.582 49.9122C11.6424 47.7118 7.71534 48.265 7.71534 48.265Z" fill="white"/>
</g>
<path d="M14.0673 36.1137C14.0673 36.1137 13.6183 31.059 14.9735 28.2779C16.8758 24.36 20.5905 23.9592 20.5905 23.9592C20.5905 23.9592 21.0069 19.4933 24.1991 17.0313C28.1097 14.0213 29.6118 14.8229 30.9181 13.6124C32.2244 12.41 33.0245 10.2997 36.233 8.89287C39.4415 7.48603 42.0459 8.39393 43.1481 7.88682C44.2503 7.37969 46.0137 5.31849 49.5244 5.08129C54.0392 4.77865 54.3331 6.52904 56.9211 6.80714C58.758 7.00345 60.1296 5.91559 64.0402 7.11795C67.9508 8.32033 68.0815 10.6923 69.3225 11.5021C70.5634 12.3118 73.625 11.5675 76.9397 14.1113C79.9441 16.4179 79.9115 18.5527 80.7523 19.4361C81.5851 20.3194 84.0588 20.6384 85.8632 25.3661C87.3653 29.3004 86.2551 30.4619 86.6632 31.697C87.0714 32.932 89.3084 34.2243 90.6718 37.9215C92.3782 42.5428 91.8719 44.9556 91.8719 44.9556C91.8719 44.9556 83.6507 55.9242 47.1568 55.4988C20.8844 55.1962 11.4629 46.0599 11.4629 46.0599C11.4629 46.0599 11.0629 41.1359 12.0671 39.2302C13.0713 37.3244 14.0673 36.1137 14.0673 36.1137Z" fill="white"/>
<path d="M48.9281 52.7993C49.7363 54.6232 52.9204 54.9258 55.5981 51.9242C57.9984 49.2249 56.5942 45.0697 54.0225 45.4214C51.6793 45.7404 52.4468 48.1779 51.3282 49.1104C50.2099 50.0428 48.2259 51.2125 48.9281 52.7993Z" fill="#F8F8F8"/>
<path d="M61.4432 41.6671C62.1371 43.1559 66.3008 42.8369 67.8765 40.0886C69.4521 37.3321 69.2236 33.3079 66.9376 33.3489C63.9577 33.406 65.0681 36.4569 64.0148 37.3893C62.9616 38.3218 60.2756 39.148 61.4432 41.6671Z" fill="#F8F8F8"/>
<path d="M77.5267 26.4864C75.8122 27.0426 76.7102 29.3002 76.0082 30.8215C75.3061 32.3428 73.4364 34.0442 74.8978 35.3365C76.3593 36.6288 79.6902 34.5186 80.1638 31.296C80.621 28.0732 79.3391 25.9057 77.5267 26.4864Z" fill="#F8F8F8"/>
<path d="M70.2931 46.8696C69.1991 48.628 67.1335 47.7447 66.7254 49.5688C66.3171 51.3846 70.5298 52.0307 72.8648 49.8633C75.208 47.6956 74.563 44.0067 73.1015 43.7123C71.6402 43.4096 71.1666 45.4627 70.2931 46.8696Z" fill="#F8F8F8"/>
<path d="M63.6975 26.797C64.6608 27.8768 68.5226 26.7317 69.8044 22.8791C71.0862 19.0267 68.5551 16.5402 66.849 17.4154C65.1426 18.2905 66.359 20.1473 65.9508 21.3496C65.5427 22.552 61.8116 24.6869 63.6975 26.797Z" fill="#F8F8F8"/>
<g style="mix-blend-mode:multiply">
<g style="mix-blend-mode:multiply">
<path fill-rule="evenodd" clip-rule="evenodd" d="M39.7368 56.0262C42.3271 56.2679 45.1295 56.4198 48.1556 56.4548C55.4086 56.5393 61.5451 56.1738 66.722 55.5338C78.0704 56.1467 87.517 56.1673 89.5026 54.8581C94.6051 51.4965 96.7372 49.2206 96.7372 49.2206C96.7372 49.2206 97.5412 43.5832 95.4994 35.9567C94.8221 34.2828 93.5279 32.6362 92.7398 31.6334V31.6332L92.7397 31.6331L92.7395 31.6329L92.7393 31.6327C92.3879 31.1855 92.1372 30.8664 92.0869 30.7301C92.0472 30.6229 92.0678 30.3644 92.0986 29.9759C92.1951 28.7654 92.392 26.2929 91.1807 23.1969C89.5111 18.9273 86.7847 17.9257 85.3462 17.397C84.9136 17.2381 84.5975 17.122 84.4615 16.9725C84.3049 16.8028 84.2375 16.5694 84.1467 16.2557C83.8916 15.3747 83.4534 13.8603 80.3468 11.3451C77.1822 8.78296 74.8285 8.60701 73.4135 8.50125C72.945 8.46623 72.5793 8.43889 72.3213 8.33511C71.991 8.20221 71.7592 7.84847 71.4477 7.37284V7.3728C70.7812 6.35548 69.7496 4.78046 66.6063 3.61562C63.164 2.34595 60.8401 2.74814 59.4244 2.99316C58.9432 3.07644 58.5667 3.14157 58.2871 3.11668C57.9679 3.08826 57.6234 2.95006 57.1755 2.77046C56.0772 2.32989 54.3574 1.6401 50.866 1.70983C48.2054 1.76296 45.9566 2.72917 44.4531 3.6044C44.4633 3.60814 44.4735 3.61187 44.4835 3.61562C47.6268 4.78046 48.6584 6.35548 49.3248 7.3728V7.37284C49.6364 7.84847 49.8682 8.20221 50.1985 8.33511C50.4565 8.43889 50.8222 8.46623 51.2907 8.50125C52.7057 8.60701 55.0594 8.78296 58.224 11.3451C61.3305 13.8603 61.7688 15.3747 62.0238 16.2557V16.2557C62.1147 16.5695 62.1823 16.8028 62.3387 16.9725C62.4746 17.122 62.7908 17.2381 63.2234 17.397C64.6619 17.9257 67.3883 18.9273 69.0579 23.1969C70.2692 26.2929 70.0723 28.7654 69.9758 29.9759C69.945 30.3644 69.9244 30.6229 69.9641 30.7301C70.0144 30.8664 70.2651 31.1855 70.6165 31.6327L70.6167 31.6329L70.6169 31.6331L70.617 31.6332V31.6334C71.4051 32.6362 72.6993 34.2828 73.3766 35.9567C75.4184 43.5832 74.6144 49.2206 74.6144 49.2206C74.6144 49.2206 72.4823 51.4965 67.3798 54.8581C65.3942 56.1673 55.9476 56.1467 44.5992 55.5338C43.0641 55.7235 41.4447 55.8891 39.7368 56.0262Z" fill="#F8F8F8"/>
</g>
</g>
<g style="mix-blend-mode:multiply">
<g style="mix-blend-mode:multiply">
<path fill-rule="evenodd" clip-rule="evenodd" d="M45.8977 31.8386C46.2035 31.4813 46.7406 31.4399 47.0974 31.7462C47.5903 32.1694 49.5059 33.2459 52.4998 33.2459C55.5187 33.2459 57.0951 32.4393 57.9022 31.7462C58.2591 31.4399 58.7962 31.4813 59.102 31.8386C59.4078 32.1962 59.3666 32.7342 59.0097 33.0406C57.8314 34.0525 55.8341 34.9508 52.4998 34.9508C49.1406 34.9508 46.8207 33.7541 45.9899 33.0406C45.6333 32.7342 45.5919 32.1962 45.8977 31.8386Z" fill="black"/>
</g>
</g>
<g style="mix-blend-mode:multiply">
<g style="mix-blend-mode:multiply">
<path d="M41.4385 27.2787C41.4385 26.3371 42.2004 25.5738 43.1402 25.5738C44.0801 25.5738 44.842 26.3371 44.842 27.2787C44.842 28.2203 44.0801 28.9836 43.1402 28.9836C42.2004 28.9836 41.4385 28.2203 41.4385 27.2787Z" fill="black"/>
</g>
</g>
<g style="mix-blend-mode:multiply">
<g style="mix-blend-mode:multiply">
<path d="M60.1577 27.2787C60.1577 26.3371 60.9196 25.5738 61.8595 25.5738C62.7993 25.5738 63.5612 26.3371 63.5612 27.2787C63.5612 28.2203 62.7993 28.9836 61.8595 28.9836C60.9196 28.9836 60.1577 28.2203 60.1577 27.2787Z" fill="black"/>
</g>
</g>
<g filter="url(#filter1_d)">
<path fill-rule="evenodd" clip-rule="evenodd" d="M10.4066 46.0328C6.86834 46.0328 4 48.954 4 52.4989C4 70.8636 14.3508 86.9778 29.5264 95.0662V100.59C29.5264 102.473 31.0501 104 32.9299 104H70.3685C72.2482 104 73.772 102.473 73.772 100.59V95.0661C88.9475 86.9777 99.2982 70.8636 99.2982 52.4989C99.2982 48.954 96.4299 46.0328 92.8916 46.0328H10.4066Z" fill="#F4F0EA"/>
</g>
<path d="M25.8242 67.8262C26.2226 67.912 26.2226 68.4814 25.8242 68.5672C21.896 69.4123 18.8275 72.4865 17.984 76.4219C17.8985 76.821 17.33 76.821 17.2444 76.4219C16.4009 72.4865 13.3324 69.4123 9.40428 68.5672C9.00587 68.4814 9.00587 67.912 9.40428 67.8262C13.3324 66.9811 16.4009 63.907 17.2444 59.9715C17.33 59.5724 17.8985 59.5724 17.984 59.9715C18.8275 63.907 21.896 66.9811 25.8242 67.8262Z" fill="#FFA012"/>
<path d="M42.8417 67.8262C43.2401 67.912 43.2401 68.4814 42.8417 68.5672C38.9136 69.4123 35.8451 72.4865 35.0016 76.4219C34.916 76.821 34.3476 76.821 34.262 76.4219C33.4184 72.4865 30.35 69.4123 26.4218 68.5672C26.0235 68.4814 26.0235 67.912 26.4218 67.8262C30.35 66.9811 33.4184 63.907 34.262 59.9715C34.3476 59.5724 34.916 59.5724 35.0016 59.9715C35.8451 63.907 38.9136 66.9811 42.8417 67.8262Z" fill="#FFA012"/>
<path d="M59.8588 67.8262C60.2572 67.912 60.2572 68.4814 59.8588 68.5672C55.9306 69.4123 52.8622 72.4865 52.0187 76.4219C51.9331 76.821 51.3647 76.821 51.2791 76.4219C50.4355 72.4865 47.3671 69.4123 43.4389 68.5672C43.0405 68.4814 43.0405 67.912 43.4389 67.8262C47.3671 66.9811 50.4355 63.907 51.2791 59.9715C51.3647 59.5724 51.9331 59.5724 52.0187 59.9715C52.8622 63.907 55.9306 66.9811 59.8588 67.8262Z" fill="#FFA012"/>
<path d="M76.8764 67.8262C77.2748 67.912 77.2748 68.4814 76.8764 68.5672C72.9482 69.4123 69.8798 72.4865 69.0362 76.4219C68.9506 76.821 68.3823 76.821 68.2967 76.4219C67.4531 72.4865 64.3847 69.4123 60.4565 68.5672C60.0581 68.4814 60.0581 67.912 60.4565 67.8262C64.3847 66.9811 67.4531 63.907 68.2967 59.9715C68.3823 59.5724 68.9506 59.5724 69.0362 59.9715C69.8798 63.907 72.9482 66.9811 76.8764 67.8262Z" fill="#FFA012"/>
<path d="M93.894 67.8262C94.2924 67.912 94.2924 68.4814 93.894 68.5672C89.9658 69.4123 86.8974 72.4865 86.0538 76.4219C85.9682 76.821 85.3998 76.821 85.3142 76.4219C84.4707 72.4865 81.4022 69.4123 77.4741 68.5672C77.0757 68.4814 77.0757 67.912 77.4741 67.8262C81.4022 66.9811 84.4707 63.907 85.3142 59.9715C85.3998 59.5724 85.9682 59.5724 86.0538 59.9715C86.8974 63.907 89.9658 66.9811 93.894 67.8262Z" fill="#FFA012"/>
<g style="mix-blend-mode:multiply">
<g style="mix-blend-mode:multiply">
<path fill-rule="evenodd" clip-rule="evenodd" d="M39.7368 104H70.3684C72.2482 104 73.7719 102.473 73.7719 100.59V95.066C88.9475 86.9776 99.2982 70.8635 99.2982 52.4988C99.2982 48.954 96.4299 46.0328 92.8916 46.0328H62.26C65.7983 46.0328 68.6666 48.954 68.6666 52.4988C68.6666 70.8635 58.3159 86.9776 43.1403 95.066V100.59C43.1403 102.473 41.6166 104 39.7368 104Z" fill="#F4F0EA"/>
</g>
</g>
<defs>
<filter id="filter0_d" x="3.40332" y="0.749237" width="96.4912" height="62.2332" filterUnits="userSpaceOnUse" color-interpolation-filters="sRGB">
<feFlood flood-opacity="0" result="BackgroundImageFix"/>
<feColorMatrix in="SourceAlpha" type="matrix" values="0 0 0 0 0 0 0 0 0 0 0 0 0 0 0 0 0 0 127 0" result="hardAlpha"/>
<feOffset dy="4"/>
<feGaussianBlur stdDeviation="2"/>
<feComposite in2="hardAlpha" operator="out"/>
<feColorMatrix type="matrix" values="0 0 0 0 0.883333 0 0 0 0 0.358044 0 0 0 0 0.0625694 0 0 0 0.6 0"/>
<feBlend mode="normal" in2="BackgroundImageFix" result="effect1_dropShadow"/>
<feBlend mode="normal" in="SourceGraphic" in2="effect1_dropShadow" result="shape"/>
</filter>
<filter id="filter1_d" x="0" y="46.0328" width="103.298" height="65.9671" filterUnits="userSpaceOnUse" color-interpolation-filters="sRGB">
<feFlood flood-opacity="0" result="BackgroundImageFix"/>
<feColorMatrix in="SourceAlpha" type="matrix" values="0 0 0 0 0 0 0 0 0 0 0 0 0 0 0 0 0 0 127 0" result="hardAlpha"/>
<feOffset dy="4"/>
<feGaussianBlur stdDeviation="2"/>
<feComposite in2="hardAlpha" operator="out"/>
<feColorMatrix type="matrix" values="0 0 0 0 0.883333 0 0 0 0 0.358044 0 0 0 0 0.0625694 0 0 0 0.6 0"/>
<feBlend mode="normal" in2="BackgroundImageFix" result="effect1_dropShadow"/>
<feBlend mode="normal" in="SourceGraphic" in2="effect1_dropShadow" result="shape"/>
</filter>
</defs>
</svg>
